<?xml version="1.0" encoding="utf-8"?>
<svg width="619px" height="168px" viewBox="0 0 619 168" version="1.1" xmlns="http://www.w3.org/2000/svg">
  <title>Kean_Brand-2018</title>
  <desc>Created with Sketch.</desc>
  <defs>
    <polygon id="path-1" points="0.419 0.85 423.73 0.85 423.73 92.807 0.419 92.807"/>
    <polygon id="path-3" points="0 0.994 167.006 0.994 167.006 167.94 0 167.94"/>
  </defs>
  <g id="Kean_Brand-2018" stroke="none" stroke-width="1" fill="none" fill-rule="evenodd">
    <g id="Group-3" transform="translate(195.000000, 38.000000)">
      <mask id="mask-2" fill="white">
        <polygon id="" points="0.419 0.85 423.73 0.85 423.73 92.807 0.419 92.807" transform="matrix(1, 0, 0, 1, 0, 0)"/>
      </mask>
      <g id="Clip-2"/>
      <path d="M60.569,19.431 C68.168,12.461 73.019,8.399 75.119,7.243 C77.216,6.089 79.779,5.511 82.802,5.511 L86.204,5.511 L86.204,1.543 C82.383,1.837 78.897,1.984 75.749,1.984 C72.725,1.984 68.903,1.837 64.285,1.543 L64.285,5.952 L46.397,24.47 C40.729,30.306 36.655,34.389 34.179,36.72 C31.7,39.051 28.74,41.623 25.297,44.435 L24.417,44.435 L24.417,27.43 C24.417,18.234 24.511,12.67 24.7,10.739 C24.892,8.808 25.365,7.517 26.126,6.865 C26.886,6.215 28.699,5.826 31.571,5.7 L36.573,5.511 L36.573,1.543 C26.098,1.837 19.622,1.984 17.14,1.984 C13.689,1.984 8.116,1.837 0.419,1.543 L0.419,5.511 L5.521,5.511 C8.88,5.511 10.896,6.235 11.567,7.684 C12.239,9.133 12.575,15.631 12.575,27.177 L12.575,69.314 C12.575,78.761 12.239,84.106 11.567,85.344 C10.896,86.582 8.88,87.202 5.521,87.202 L0.419,87.202 L0.419,91.169 C6.811,90.875 12.785,90.729 18.337,90.729 C23.638,90.729 29.716,90.875 36.573,91.169 L36.573,87.202 L31.823,87.202 C27.898,87.202 25.619,86.445 24.986,84.933 C24.605,84.053 24.417,78.931 24.417,69.566 L24.417,50.356 C24.417,48.719 24.857,47.899 25.739,47.899 C26.074,47.899 26.976,48.593 28.447,49.978 L71.843,91.169 C75.075,90.875 78.057,90.729 80.787,90.729 C83.391,90.729 86.413,90.875 89.856,91.169 L89.856,87.202 C87.968,87.202 86.612,87.075 85.794,86.824 C84.975,86.573 84.167,86.048 83.369,85.249 L79.465,81.534 L36.508,41.539 L60.569,19.431 Z M149.193,47.899 C158.723,47.899 164.277,48.352 165.852,49.254 C167.426,50.156 168.213,52.624 168.213,56.654 L168.213,60.308 L172.497,60.308 C172.202,54.891 172.055,50.188 172.055,46.198 C172.055,42.419 172.202,37.361 172.497,31.019 L168.213,31.019 L168.213,35.114 C168.213,38.726 167.553,40.876 166.23,41.569 C164.907,42.263 159.25,42.609 149.255,42.609 C146.063,42.609 142.39,42.462 138.234,42.168 L138.234,29.405 L138.359,19.723 C138.484,15.785 138.526,11.845 138.484,7.903 C144.784,7.4 150.809,7.149 156.561,7.149 C163.783,7.149 169.871,8.074 174.826,9.921 C175.288,12.985 175.521,16.828 175.521,21.446 L179.802,21.446 C179.971,13.458 180.852,6.971 182.449,1.984 C178.458,1.649 174.512,1.502 170.607,1.543 L159.144,1.617 L134.956,1.984 C133.023,1.984 130.188,1.911 126.448,1.764 L119.771,1.543 L112.969,1.543 L112.969,5.511 L117.82,6.016 C120.842,6.309 122.648,6.645 123.236,7.022 C123.824,7.4 124.275,7.935 124.59,8.628 C124.904,9.321 125.198,11.475 125.472,15.085 C125.745,18.696 125.881,23.335 125.881,29.004 L125.881,63.582 C125.881,72.611 125.723,78.447 125.408,81.092 C125.093,83.737 124.464,85.417 123.52,86.13 C122.575,86.846 120.276,87.202 116.623,87.202 L114.669,87.202 L114.669,91.169 C122.815,90.875 129.347,90.729 134.262,90.729 C139.388,90.729 147.408,90.875 158.326,91.169 L168.213,91.359 C172.875,91.359 177.619,91.147 182.449,90.729 L182.323,87.886 C182.323,84.812 182.888,78.663 184.023,69.439 L179.865,69.439 C178.771,74.982 177.701,79.603 176.65,83.297 C174.336,84.137 172.15,84.682 170.089,84.933 C166.892,85.355 162.94,85.563 158.23,85.563 C151.208,85.563 144.625,85.333 138.484,84.87 C138.359,82.305 138.296,78.245 138.296,72.693 L138.234,63.798 L138.234,48.34 C142.012,48.048 145.665,47.899 149.193,47.899 Z M276.257,78.447 C277.517,81.638 278.148,83.613 278.148,84.367 C278.148,85.083 277.833,85.669 277.203,86.13 C276.782,86.426 275.46,86.657 273.234,86.824 L267,87.202 L267,91.169 C274.683,90.875 280.833,90.729 285.454,90.729 C290.407,90.729 295.616,90.875 301.074,91.169 L301.074,87.202 C297.839,87.034 295.761,86.729 294.838,86.289 C293.914,85.848 293.095,85.114 292.382,84.083 C291.667,83.056 290.24,80.022 288.1,74.982 L256.23,0.85 L251.946,0.85 C250.266,5.554 247.118,13.112 242.499,23.524 L225.178,62.764 C222.07,69.777 219.027,76.306 216.045,82.352 C215.079,84.409 214.166,85.702 213.304,86.226 C212.445,86.75 210.544,87.055 207.606,87.139 L205.716,87.202 L205.716,91.169 C210.292,90.875 215.605,90.729 221.65,90.729 C226.69,90.729 231.224,90.875 235.255,91.169 L235.255,87.202 L229.208,86.508 C227.068,86.256 225.734,85.921 225.209,85.501 C224.684,85.083 224.421,84.39 224.421,83.423 C224.421,81.91 225.829,77.797 228.643,71.077 L232.913,60.937 L269.349,60.937 L276.257,78.447 Z M251.135,17.935 L266.99,55.772 L235.258,55.772 L251.135,17.935 Z M385.311,71.701 C390.432,78.002 395.325,83.735 399.987,88.902 C400.824,89.826 401.708,90.488 402.631,90.886 C403.554,91.285 406.873,91.926 412.583,92.807 C411.91,82.185 411.575,73.052 411.575,65.409 L411.575,37.003 C411.575,20.333 411.763,11.138 412.142,9.416 C412.729,6.813 414.977,5.511 418.88,5.511 L423.731,5.511 L423.731,1.543 C417.559,1.837 412.52,1.984 408.615,1.984 C404.878,1.984 399.628,1.837 392.868,1.543 L392.868,5.511 L397.593,5.952 C401.833,6.372 404.257,7.37 404.868,8.943 C405.475,10.518 405.78,19.767 405.78,36.688 L405.78,77.123 C402.337,73.43 396.73,66.837 388.963,57.347 L367.423,30.894 C363.476,26.023 359.665,21.184 355.991,16.376 C352.316,11.569 348.402,6.623 344.246,1.543 C340.633,1.837 337.317,1.984 334.292,1.984 C331.48,1.984 327.407,1.837 322.075,1.543 L322.075,5.511 L325.98,5.511 C327.954,5.511 329.485,5.868 330.578,6.582 C331.668,7.297 332.5,8.104 333.065,9.007 C333.632,9.91 333.957,11.579 334.042,14.014 C334.167,19.767 334.23,25.582 334.23,31.461 L334.23,62.764 C334.23,70.7 334,76.978 333.538,81.596 C333.326,83.823 332.802,85.311 331.963,86.066 C331.123,86.824 329.337,87.202 326.609,87.202 L322.075,87.202 L322.075,91.169 C331.289,90.875 337.18,90.729 339.749,90.729 C343.451,90.729 347.593,90.875 352.181,91.169 L352.181,87.202 L348.129,86.887 C344.794,86.593 342.778,86.121 342.082,85.469 C341.385,84.818 340.89,83.001 340.595,80.02 C340.215,76.113 340.026,69.204 340.026,59.291 L340.026,15.754 L385.311,71.701 Z" id="Fill-1" mask="url(#mask-2)" style="fill: rgb(255, 255, 255);"/>
    </g>
    <polyline id="Fill-4" points="100.641 80.061 100.637 80.054 100.641 80.061" style="fill: rgb(255, 255, 255);"/>
    <path d="M100.581,79.992 L100.576,79.983 L100.577,79.983 L100.581,79.992 Z M100.756,77.121 L100.713,77.16 L100.604,77.249 L100.575,77.27 L100.573,77.272 L100.553,77.284 C100.389,77.386 100.223,77.524 100.044,77.674 L99.806,77.885 L99.71,77.979 L99.606,78.097 C99.482,78.266 99.454,78.489 99.532,78.684 L99.598,78.847 L99.752,79.071 L99.764,79.081 C99.594,79.205 99.411,79.352 99.214,79.513 C98.966,79.718 98.712,79.928 98.617,79.997 L98.535,80.069 L98.169,80.451 L98.172,80.449 C97.808,80.826 97.54,81.285 97.359,81.779 C97.339,81.809 97.295,81.876 97.233,81.974 L97.235,81.933 C97.237,81.634 97.117,81.322 96.89,81.101 L96.892,81.099 C96.889,81.097 96.887,81.096 96.885,81.094 C96.884,81.094 96.884,81.092 96.883,81.092 C96.59,80.821 96.303,80.753 96.056,80.681 C95.931,80.649 95.818,80.629 95.728,80.614 L95.609,80.599 L95.492,80.59 C95.396,80.591 95.278,80.602 95.151,80.627 L95.055,80.495 L94.974,80.404 L94.755,80.204 L94.758,80.207 C94.758,80.207 94.586,80.046 94.406,79.875 L94.156,79.632 L94.074,79.549 L94.058,79.531 L94.053,79.535 C93.971,79.428 93.857,79.348 93.726,79.314 L93.653,79.296 L93.57,79.281 L93.15,79.236 C93.02,79.072 92.891,78.907 92.765,78.743 L93.026,78.231 C93.123,78.041 93.114,77.814 93.001,77.632 L92.852,77.393 C92.88,77.339 92.909,77.281 92.94,77.22 C93.072,76.959 93.232,76.649 93.326,76.481 C93.421,76.303 93.623,76.156 93.898,75.995 L93.963,75.982 L94.096,75.962 L94.144,75.956 L94.156,75.955 L94.156,75.954 L94.34,75.928 L94.577,75.856 L94.577,75.854 C94.724,75.814 94.834,75.767 94.908,75.74 L95.048,75.699 C95.358,75.674 95.599,75.422 95.609,75.111 L95.618,74.856 L96.586,74.129 C96.633,74.12 96.681,74.11 96.741,74.096 L97.003,74.028 C97.095,73.999 97.182,73.973 97.295,73.913 C97.365,73.875 97.404,73.807 97.454,73.747 L97.471,73.765 L97.493,73.746 C97.55,73.7 97.673,73.618 97.777,73.552 L97.883,73.484 L97.993,73.468 C98.235,73.431 98.431,73.251 98.491,73.014 L98.51,72.941 L98.522,72.709 C98.491,72.482 98.411,72.262 98.288,72.067 L98.275,72.046 C98.205,71.946 98.124,71.852 98.011,71.719 C97.678,71.33 97.151,70.75 96.988,70.581 L96.858,70.479 C96.661,70.363 96.53,70.232 96.442,70.086 C96.355,69.939 96.305,69.77 96.304,69.54 L96.316,69.346 C96.334,69.198 96.296,69.046 96.212,68.924 L96.048,68.687 L95.85,68.506 L95.723,68.434 C95.651,68.392 95.568,68.38 95.485,68.37 C95.484,68.326 95.482,68.287 95.481,68.241 C95.474,68.055 95.467,67.864 95.464,67.766 L95.494,67.662 L95.551,67.636 L95.638,67.585 C95.745,67.507 95.777,67.461 95.821,67.412 C95.953,67.251 96.071,67.056 96.185,66.862 C96.241,66.766 96.29,66.675 96.331,66.595 L96.388,66.473 L96.417,66.394 C96.426,66.355 96.445,66.323 96.449,66.193 C96.448,66.151 96.448,66.093 96.419,66 L96.394,65.938 C96.391,65.931 96.325,65.785 96.229,65.605 C96.206,65.564 96.18,65.52 96.156,65.477 C96.178,65.459 96.198,65.444 96.22,65.425 C96.347,65.319 96.481,65.204 96.603,65.092 C96.726,64.976 96.829,64.881 96.93,64.748 C96.98,64.681 97.009,64.602 97.028,64.522 L97.37,64.225 L97.439,64.154 C97.446,64.145 97.507,64.071 97.582,63.964 C97.641,63.873 97.707,63.764 97.767,63.616 L97.77,63.617 L97.825,63.508 L97.886,63.298 L97.915,63.122 C98.005,62.956 98.116,62.81 98.248,62.677 C98.285,62.67 98.319,62.664 98.36,62.656 L103.045,65.617 C102.917,66.18 102.61,66.819 102.325,67.41 L102.324,67.41 L102.303,67.454 L102.263,67.557 C102.229,67.679 102.201,67.799 102.17,67.919 L102.02,67.896 L101.762,67.868 C101.558,67.898 101.485,67.972 101.434,68.008 L101.307,68.148 C101.245,68.244 101.225,68.294 101.187,68.373 C101.135,68.484 101.079,68.616 101.03,68.736 C101.009,68.79 100.99,68.836 100.973,68.88 C100.943,68.916 100.917,68.951 100.891,68.984 C100.807,69.1 100.738,69.212 100.688,69.285 L100.674,69.306 C100.595,69.367 100.53,69.446 100.489,69.539 C100.405,69.725 100.419,69.94 100.527,70.114 C100.653,70.314 100.805,70.493 101.001,70.634 C101.193,70.771 101.439,70.865 101.702,70.868 C101.823,70.937 101.941,71.008 102.075,71.073 C102.135,71.1 102.197,71.124 102.258,71.15 C101.985,73.232 101.429,75.456 100.756,77.121 Z M104.062,64.817 L98.809,61.497 C98.677,61.414 98.522,61.385 98.369,61.414 C98.239,61.439 97.881,61.504 97.881,61.504 L97.678,61.581 L97.586,61.636 L97.489,61.708 C97.199,61.972 96.963,62.285 96.789,62.635 L96.741,62.768 C96.72,62.858 96.709,62.949 96.695,63.04 L96.68,63.072 L96.644,63.165 L96.643,63.164 L96.563,63.292 L96.525,63.343 L96.003,63.797 C95.896,63.89 95.843,64.017 95.819,64.152 C95.693,64.271 95.515,64.426 95.352,64.561 C95.153,64.725 94.99,64.85 94.99,64.851 C94.787,65.009 94.705,65.279 94.786,65.523 L94.822,65.633 L94.958,65.862 C94.966,65.862 95.081,66.036 95.152,66.176 L95.162,66.194 C95.127,66.257 95.088,66.324 95.049,66.386 L94.919,66.585 L94.722,66.678 C94.562,66.753 94.441,66.895 94.395,67.065 L94.267,67.521 L94.245,67.648 L94.244,67.704 C94.244,67.809 94.253,68.037 94.262,68.287 C94.272,68.529 94.281,68.788 94.28,68.852 L94.299,69.001 L94.317,69.075 C94.354,69.221 94.445,69.35 94.57,69.433 L94.68,69.506 C94.779,69.572 94.899,69.608 95.018,69.608 L95.091,69.608 L95.093,69.608 C95.103,70.007 95.201,70.388 95.396,70.711 C95.575,71.014 95.835,71.252 96.127,71.445 C96.218,71.541 96.476,71.822 96.724,72.1 C96.854,72.246 96.983,72.392 97.085,72.512 C97.092,72.52 97.097,72.527 97.104,72.535 C97.061,72.563 97.02,72.589 96.975,72.619 L96.738,72.788 L96.661,72.856 C96.603,72.873 96.522,72.897 96.443,72.914 L96.287,72.947 L96.225,72.958 C96.13,72.975 96.043,73.013 95.965,73.071 L94.652,74.056 C94.504,74.167 94.415,74.338 94.409,74.523 L94.405,74.626 C94.334,74.654 94.279,74.675 94.253,74.681 L94.219,74.69 L94.04,74.745 C93.935,74.753 93.84,74.767 93.751,74.782 C93.636,74.802 93.545,74.822 93.54,74.823 L93.366,74.889 C93.036,75.081 92.565,75.345 92.26,75.889 C92.039,76.286 91.611,77.148 91.608,77.154 C91.514,77.343 91.525,77.566 91.636,77.746 L91.783,77.983 L91.502,78.534 C91.396,78.742 91.417,78.991 91.557,79.178 C91.817,79.524 92.078,79.858 92.357,80.199 C92.458,80.324 92.604,80.403 92.764,80.421 L93.277,80.475 C93.383,80.583 93.51,80.705 93.634,80.824 C93.793,80.974 93.927,81.099 93.928,81.1 L93.931,81.103 L94.105,81.262 L94.115,81.275 L94.119,81.324 L94.175,81.534 C94.271,81.764 94.534,81.988 94.798,82.034 C95.024,82.082 95.26,81.998 95.404,81.817 L95.406,81.814 L95.477,81.811 C95.516,81.815 95.658,81.836 95.787,81.871 L95.98,81.937 L95.987,81.941 L95.924,82.059 L95.774,82.293 C95.632,82.699 95.509,83.117 95.409,83.54 C95.342,83.825 95.488,84.12 95.755,84.238 L95.919,84.311 L96.14,84.363 L96.173,84.364 C96.329,84.359 96.393,84.338 96.509,84.312 C96.669,84.272 96.858,84.213 97.049,84.133 C97.242,84.044 97.425,83.976 97.634,83.748 L97.744,83.562 C97.786,83.436 97.956,83.122 98.105,82.879 C98.181,82.755 98.252,82.642 98.305,82.561 L98.389,82.434 L98.461,82.283 C98.581,81.911 98.787,81.567 99.049,81.296 L99.052,81.293 L99.389,80.94 C99.577,80.797 99.834,80.58 100.094,80.368 C100.232,80.255 100.366,80.148 100.465,80.074 L100.577,79.995 L100.589,79.987 L100.584,79.98 L100.715,79.915 L100.952,79.733 C101.042,79.664 101.109,79.574 101.15,79.469 L101.288,79.112 C101.349,78.951 101.34,78.774 101.264,78.62 L101.242,78.576 L101.127,78.417 L101.099,78.389 C101.146,78.354 101.182,78.328 101.188,78.325 L101.187,78.323 C101.256,78.284 101.301,78.25 101.35,78.214 C101.512,78.088 101.68,77.932 101.687,77.926 L101.836,77.711 C102.659,75.713 103.291,73.055 103.544,70.628 C103.557,70.56 103.572,70.49 103.572,70.432 C103.572,70.423 103.568,70.415 103.568,70.405 C103.574,70.345 103.582,70.283 103.587,70.223 C103.598,70.096 103.569,69.967 103.503,69.857 L103.405,69.694 C103.296,69.511 103.096,69.397 102.882,69.397 L102.85,69.397 C102.654,69.397 102.469,69.492 102.355,69.651 C102.322,69.697 102.312,69.751 102.293,69.803 C102.242,69.774 102.197,69.75 102.146,69.72 C102.076,69.68 101.999,69.655 101.92,69.644 C101.993,69.573 102.053,69.49 102.083,69.392 L102.084,69.392 C102.09,69.372 102.133,69.259 102.182,69.141 C102.188,69.141 102.194,69.144 102.2,69.144 C102.438,69.144 102.675,69.098 102.899,69.004 C103.082,68.929 103.215,68.771 103.259,68.578 C103.308,68.364 103.363,68.153 103.424,67.936 C103.723,67.308 104.125,66.536 104.282,65.688 L104.283,65.689 L104.333,65.461 C104.386,65.211 104.278,64.954 104.062,64.817 Z" id="Fill-5" style="fill: rgb(255, 255, 255);"/>
    <path d="M111.685,88.529 C111.685,88.529 110.422,86.85 110.176,86.481 C110.077,79.381 109.972,72.281 109.872,65.181 C110.506,65.354 111.517,65.977 111.761,66.627 C112.222,67.87 112.011,86.62 111.685,88.529 Z M109.872,94.393 C109.252,95.699 108.63,97.004 108.01,98.311 C105.214,103.132 100.73,107.567 95.755,109.993 C94.2,110.748 83.025,116.475 83.025,116.475 C82.383,116.475 78.174,113.703 77.3,113.22 C74.439,111.637 71.314,110.702 68.445,109.125 C63.9,106.627 59.896,102.17 57.478,97.679 C56.874,96.563 55.4,94.241 55.728,92.991 C55.849,92.531 75.331,92.267 78.925,92.657 C78.925,92.657 80.087,99.959 80.228,102.943 C81.613,102.943 86.025,102.943 86.025,102.943 C86.025,102.943 86.853,93.819 87.162,92.794 C87.162,92.794 109.041,92.304 110.369,93.022 C110.462,93.073 109.945,94.162 109.872,94.393 Z M78.35,86.855 C78.35,86.855 78.704,89.272 78.755,90.026 C78.755,90.026 55.427,90.56 55.393,90.342 C55.133,88.7 70.998,86.285 78.35,86.855 Z M54.646,88.103 C54.182,88.103 54.163,86.337 54.145,85.967 C54.133,81.705 53.64,68.733 54.232,66.923 C54.473,66.181 56.258,64.906 56.258,64.906 C56.258,64.906 56.202,68.09 56.205,69.013 C56.212,71.614 56.3,86.323 56.3,86.323 L54.646,88.103 Z M54.165,56.788 C54.379,56.734 63.4,56.477 67.947,56.554 C69.917,56.582 74.314,56.49 75.447,56.679 C75.634,56.71 75.754,59.637 75.754,59.637 C74.511,59.35 71.393,58.521 66.368,58.857 C60.165,59.272 54.087,63.71 54.087,63.585 C54.087,62.775 54.006,56.971 54.165,56.788 Z M65.791,82.346 C67.142,82.419 70.525,82.272 70.525,82.272 C70.572,83.694 71.087,84.867 68.544,84.991 C66.144,85.107 65.791,84.275 65.791,82.346 Z M65.676,74.893 C66.015,74.488 70.018,74.425 70.408,74.69 C70.799,74.956 71.079,78.92 70.688,79.748 C70.419,80.319 66.04,80.241 65.744,79.71 C65.502,79.279 65.336,75.298 65.676,74.893 Z M65.933,72.368 C65.933,72.368 66.771,70.41 67.103,68.788 C67.435,67.165 67.869,65.163 67.869,65.163 C67.869,65.163 68.42,67.826 68.728,68.913 C69.036,70 69.9,72.3 69.9,72.397 C69.9,72.6 66.197,72.772 65.933,72.368 Z M63.103,74.788 C63.248,74.975 63.805,74.571 64.025,75.085 C64.275,75.675 64.603,79.882 63.962,80.069 C63.795,80.118 62.898,80.095 62.921,80.238 C62.985,80.679 62.831,81.79 63.072,82.085 C63.372,82.451 63.994,82.399 63.994,82.398 C64.462,82.742 64.062,84.823 63.837,85.1 C63.837,85.1 62.431,85.475 61.395,85.61 C61.111,85.647 58.912,85.916 58.572,85.272 C58.032,84.257 58.36,64.372 58.863,63.729 C60.173,62.033 64.837,60.897 66.79,60.741 C68.072,62.147 65.344,70.938 64.447,72.246 C64.021,72.864 63.568,72.356 63.072,72.819 C62.837,73.038 62.873,74.585 63.103,74.788 Z M72.978,80.069 C72.978,80.069 72.161,80.198 72.097,79.857 C71.806,78.319 71.915,74.647 71.915,74.647 C72.183,74.521 72.837,74.71 72.915,74.569 C72.994,74.429 73.15,72.679 72.478,72.71 C72.139,72.725 71.705,72.559 71.509,72.246 C70.853,71.194 67.931,63.991 68.947,60.929 C69.002,60.761 74.836,61.425 75.778,62.266 C76.799,63.176 77.843,81.61 78.081,84.497 C78.107,84.823 75.711,85.064 75.447,85.054 C74.718,85.017 72.58,84.902 72.219,84.505 C71.934,84.189 71.795,82.977 71.962,82.554 C72.197,81.96 72.559,82.498 72.869,82.085 C73.174,81.665 72.978,80.615 72.978,80.069 Z M74.494,46.573 C75.49,46.672 81.54,46.771 83.003,46.771 C84.466,46.771 91.84,46.606 91.946,46.606 C91.946,46.713 89.778,50.496 88.876,51.196 C87.886,51.955 78.486,51.715 77.414,51.281 C76.432,50.882 75.021,47.545 74.494,46.573 Z M87.697,86.907 C87.697,86.727 109.514,86.657 110.218,90.361 C110.135,89.922 89.275,89.675 87.481,89.915 C87.52,89.029 87.661,87.795 87.697,86.907 Z M107.527,85.863 C106.14,85.663 104.752,85.465 103.363,85.264 C101.219,84.988 93.651,84.497 92.494,84.584 C91.36,84.67 90.22,84.654 89.081,84.69 C87.848,84.69 87.929,84.105 87.995,83.089 C88.447,77.901 88.741,72.794 89.193,67.607 C89.274,66.321 89.333,63.118 90.046,62.291 C90.837,61.359 93.27,60.976 96.26,60.622 C99.249,60.269 105.368,61.579 107.243,63.858 C108.149,64.958 107.832,80.919 107.527,85.863 Z M78.134,55.647 C78.031,54.638 77.775,54.21 77.775,54.21 L88.119,54.241 C88.119,54.241 87.784,54.758 87.712,55.67 C87.641,56.582 84.431,100.225 84.431,100.225 L81.744,100.234 C81.744,100.234 78.238,56.657 78.134,55.647 Z M90.322,56.507 C95.057,56.096 110.562,56.34 111.514,56.849 C112.167,57.195 111.829,62.659 111.578,63.369 C111.822,62.679 104.228,59.038 99.306,58.646 C94.401,58.256 90.522,59.19 90.149,59.423 L90.042,59.423 C90.042,58.325 90.15,57.397 90.322,56.507 Z M90.91,54.007 C90.91,53.349 95.8,44.392 95.8,44.392 L70.466,44.392 C70.466,44.392 74.9,53.397 74.947,54.007 C74.947,54.007 52.032,54.179 51.259,54.007 C51.259,54.007 51.59,67.353 51.541,73.705 C51.457,78.943 51.187,84.431 51.934,89.479 C53.336,98.992 60.02,107.382 68.232,112.138 C70.012,112.904 71.79,113.667 73.569,114.43 C76.234,115.659 83.003,120.3 83.003,120.3 C83.003,120.3 89.337,115.85 91.79,114.679 C94.153,113.551 96.595,112.68 98.865,111.401 C107.62,106.449 113.581,96.599 114.533,86.606 C114.809,83.695 114.613,80.697 114.566,77.757 C114.56,75.059 114.55,72.357 114.543,69.658 C114.49,66.286 114.397,62.995 114.343,59.531 C114.317,57.891 114.24,55.472 114.487,53.969 C113.018,54.15 90.91,54.007 90.91,54.007 Z" id="Fill-6" style="fill: rgb(255, 255, 255);"/>
    <path d="M124.009,89.632 C124.009,89.632 123.565,91.919 123.337,92.882 C122.769,95.284 122.394,97.304 121.197,99.897 C119.735,103.062 118.234,106 116.215,108.858 C115.575,109.598 114.009,111.96 112.215,113.728 C108.199,117.686 104.72,119.72 98.187,122.636 C96.594,123.347 94.866,124.051 93.133,124.457 C93.133,122.144 93.366,119.993 91.699,118.594 C91.699,118.594 94.697,117.871 96.193,117.334 C103.805,114.599 111.315,106.341 114.947,99.085 C116.803,95.366 118.469,88.085 118.146,87.616 C117.822,87.147 122.197,89.397 124.009,89.632 Z M123.259,78.18 C124.038,77.005 128.636,75.202 128.636,75.202 C129.051,75.742 130.134,86.507 128.931,88.163 C128.931,88.163 123.609,86.612 123.666,86.335 C123.882,85.269 123.541,79.085 123.259,78.18 Z M90.197,130.147 C89.622,130.65 85.962,131.178 83.119,131.169 C80.276,131.16 75.681,130.757 75.306,130.1 C74.525,128.734 74.96,123.117 75.008,123.71 C75.056,124.304 80.539,125.019 83.04,125.018 C85.542,125.016 90.427,124.515 90.468,123.925 C90.509,123.335 90.632,129.76 90.197,130.147 Z M72.13,124.564 C71.686,124.411 71.244,124.257 70.801,124.103 C69.181,123.577 67.682,122.998 66.16,122.316 C54.736,117.175 47.216,107.27 43.362,95.705 C42.967,94.526 41.652,91.141 42.332,89.901 C42.764,89.105 46.539,88.261 47.509,87.897 C47.688,87.897 48.103,91.21 48.728,93.304 C49.344,95.367 51.254,100.177 54.458,104.585 C57.781,109.155 62.285,113.173 66.634,115.522 C69.134,116.872 74.155,118.487 74.155,118.487 C72.354,118.487 72.13,124.564 72.13,124.564 Z M37.034,87.602 C36.085,86.531 36.935,76.904 37.053,75.059 C38.256,75.659 42.354,77.669 42.725,78.652 C43.077,79.587 42.402,85 42.596,86.451 C42.631,86.718 37.431,88.053 37.034,87.602 Z M116.3,84.497 C116.3,94.601 109.289,106.477 101,111.858 C99.061,113.113 96.889,114.213 94.713,115.035 C93.61,115.448 90.733,116.532 90.345,116.615 C89.281,116.841 88.321,117.512 88.853,118.944 C89.249,120.01 90.084,119.679 90.181,120.554 C90.258,121.271 90.032,121.615 88.975,121.899 C87.49,122.298 77.358,122.822 76.091,121.252 C74.988,119.885 78.474,117.685 76.318,116.701 C75.679,116.555 75.036,116.408 74.395,116.262 C72.649,115.792 70.828,115.225 69.239,114.432 C63.188,111.407 57.907,106.621 54.436,100.673 C53.343,98.798 52.502,96.799 51.72,94.78 C50.831,92.489 50.607,92.502 49.635,84.477 C48.995,84.69 46.232,85.671 45.643,85.327 C44.594,84.712 45.494,78.438 45.69,77.227 C45.007,76.812 38.279,72.015 35.349,70.725 C34.675,72.334 34.479,74.236 34.246,76.049 C33.708,80.197 33.569,84.6 34.043,88.849 C34.129,89.629 34.039,90.894 34.703,91.378 C35.432,91.908 38.64,90.645 39.613,90.555 C39.613,90.555 40.419,94.646 40.912,96.199 C44.98,109.087 53.986,119.885 66.697,125.1 C68.082,125.668 72.237,126.909 72.237,126.909 C72.237,126.909 72.23,132.3 72.71,132.685 C74.658,134.246 91.174,134.416 92.763,132.633 C93.53,131.766 92.985,128.212 93.347,126.909 C95.524,126.909 98.69,125.33 100.546,124.43 C103.221,123.128 105.774,121.959 108.255,120.267 C116.095,114.909 122.723,104.616 124.974,96.752 C125.542,94.764 126.398,90.449 126.398,90.449 C127.464,90.449 130.414,92.141 131.373,91.608 C132.011,91.248 132.425,83.786 132.218,80.366 C132.082,78.125 130.968,71.304 130.447,71.095 C130.051,70.936 122.424,74.99 120.635,76.616 C120.603,77.864 121.65,84.569 120.635,85.585 C120.12,86.1 116.3,84.497 116.3,84.497 Z" id="Fill-7" style="fill: rgb(255, 255, 255);"/>
    <g id="Group-11">
      <mask id="mask-4" fill="white">
        <polygon id="" points="0 0.994 167.006 0.994 167.006 167.94 0 167.94" transform="matrix(1, 0, 0, 1, 0, 0)"/>
      </mask>
      <g id="Clip-9"/>
      <path d="M102.03,99.824 C102.03,99.824 101.008,100.209 100.405,101.033 C99.883,101.748 99.508,102.576 99.363,103.283 C99.363,103.283 97.905,103.075 96.363,103.679 C94.822,104.283 93.74,105.341 93.74,105.341 C93.74,105.341 92.054,104.031 90.682,104.308 C90.682,104.308 91.196,103.649 91.176,102.476 C91.155,101.304 90.895,101.11 90.895,101.11 C90.895,101.11 92.08,100.873 93.176,99.824 C94.271,98.775 94.413,97.164 94.413,97.164 C94.413,97.164 98.269,97.49 99.238,96.199 C100.064,96.923 102.041,96.835 102.041,96.835 C102.041,96.835 101.756,97.179 101.728,98.397 C101.707,99.293 102.03,99.824 102.03,99.824 Z M75.259,104.367 C75.259,104.367 74.386,104.333 73.28,104.679 C72.174,105.025 71.696,105.575 71.696,105.575 C71.696,105.575 71.28,105.011 69.447,104.366 C67.613,103.721 66.53,103.846 66.53,103.846 C66.53,103.846 66.475,102.311 65.405,101.117 C64.335,99.922 63.706,99.751 63.706,99.751 C63.706,99.751 63.995,99.529 63.992,98.198 C63.988,96.867 63.602,96.616 63.602,96.616 C63.602,96.616 64.164,96.738 65.176,96.471 C66.188,96.204 66.373,95.885 66.373,95.885 C66.373,95.885 66.8,96.533 68.321,96.742 C69.842,96.95 70.665,96.808 71.071,96.638 C71.071,96.638 71.505,98.021 72.402,99.206 C73.28,100.367 75.176,100.929 75.176,100.929 C75.176,100.929 75.032,101.322 74.957,102.319 C74.883,103.317 75.259,104.367 75.259,104.367 Z M101.574,95.179 C99.99,94.887 99.105,93.966 99.105,93.966 C99.105,93.966 98.599,94.946 96.718,95.366 C94.836,95.786 93.154,95.116 93.154,95.116 C93.154,95.116 93.27,97.015 91.968,98.47 C90.665,99.926 88.228,100.256 88.228,100.256 C88.228,100.256 89.405,101.637 89.29,102.897 C89.176,104.158 83.025,107.882 83.025,107.882 C83.025,107.882 76.777,104.478 76.768,102.943 C76.759,101.409 77.228,100.147 77.228,100.147 C77.228,100.147 75.28,99.72 74.04,98.46 C72.801,97.2 71.967,94.93 71.967,94.93 C71.967,94.93 70.202,95.358 68.509,95.085 C67.148,94.865 66.363,93.929 66.363,93.929 C66.363,93.929 65.697,94.845 64.072,95.116 C62.446,95.388 61.165,95.116 61.165,95.116 C61.165,95.116 62.111,96.614 62.169,97.865 C62.228,99.116 61.478,100.234 61.478,100.234 C61.478,100.234 63.259,101.061 64.103,102.495 C64.947,103.929 65.21,105.609 65.21,105.609 C65.21,105.609 67.065,105.32 68.79,105.959 C70.516,106.598 71.697,107.929 71.697,107.929 C71.697,107.929 72.729,106.937 74.067,106.527 C75.405,106.117 80.968,109.802 83.003,111.024 C83.453,110.661 90.091,105.644 91.572,106.464 C93.052,107.285 93.884,108.158 93.884,108.158 C93.884,108.158 94.854,106.372 96.884,105.679 C98.914,104.985 100.78,105.012 100.78,105.012 C100.78,105.012 100.787,103.297 102.093,101.991 C103.398,100.685 104.268,100.234 104.268,100.234 C104.268,100.234 103.485,99.587 103.53,98.054 C103.576,96.52 104.541,95.116 104.541,95.116 C104.541,95.116 103.157,95.471 101.574,95.179 Z" id="Fill-8" mask="url(#mask-4)" style="fill: rgb(255, 255, 255);"/>
      <path d="M165.207,84.498 L163.406,84.498 C163.405,106.568 154.466,126.532 140.002,140.998 C125.537,155.46 105.575,164.4 83.504,164.4 C61.434,164.4 41.469,155.46 27.004,140.998 C12.543,126.532 3.603,106.568 3.601,84.498 C3.603,62.428 12.543,42.464 27.004,27.998 C41.469,13.536 61.434,4.597 83.504,4.597 C105.575,4.597 125.537,13.536 140.002,27.998 C154.466,42.464 163.405,62.428 163.406,84.498 L167.006,84.498 C167.005,38.379 129.622,0.995 83.504,0.994 C37.385,0.995 0.001,38.379 0,84.498 C0.001,130.616 37.385,168 83.504,168 C129.622,168 167.005,130.616 167.006,84.498 L165.207,84.498" id="Fill-10" mask="url(#mask-4)" style="fill: rgb(255, 255, 255);"/>
    </g>
    <path d="M46.107,94.526 C46.277,94.165 46.268,93.749 46.319,93.42 C46.344,93.256 46.383,93.115 46.442,93.019 C46.504,92.924 46.577,92.861 46.723,92.822 L46.853,92.805 C47.077,92.807 47.272,92.959 47.354,93.261 L47.376,93.415 C47.376,93.638 47.229,93.782 47.097,93.88 L47.002,93.951 L47.05,94.132 L47.083,94.267 L47.223,94.264 L47.335,94.262 C47.475,94.262 47.561,94.272 47.656,94.296 L47.805,94.336 L47.863,94.194 C47.933,94.025 47.969,93.848 47.969,93.659 C47.969,93.508 47.945,93.35 47.902,93.179 C47.729,92.485 47.251,92.038 46.672,92.039 C46.574,92.039 46.474,92.051 46.374,92.077 C46.021,92.164 45.79,92.374 45.667,92.618 C45.481,92.984 45.485,93.405 45.431,93.735 C45.405,93.901 45.369,94.04 45.31,94.136 C45.25,94.231 45.181,94.291 45.038,94.33 L44.87,94.352 C44.602,94.348 44.372,94.195 44.274,93.842 L44.244,93.609 C44.244,93.323 44.393,93.103 44.539,92.976 L44.621,92.906 L44.594,92.801 L44.577,92.732 L44.536,92.582 L44.382,92.604 C44.259,92.621 44.179,92.631 44.102,92.63 L43.934,92.617 L43.798,92.598 L43.747,92.725 C43.679,92.888 43.614,93.097 43.614,93.364 C43.614,93.508 43.634,93.669 43.679,93.849 C43.879,94.649 44.467,95.107 45.097,95.104 C45.211,95.104 45.328,95.09 45.44,95.06 C45.775,94.978 45.996,94.767 46.107,94.526" id="Fill-12" style="fill: rgb(255, 255, 255);"/>
    <path d="M48.586,100.434 L48.787,100.368 L48.685,100.184 C48.535,99.909 48.369,99.596 48.13,99.075 C48.27,99.01 48.44,98.93 48.623,98.847 C48.799,98.769 48.947,98.713 49.101,98.651 C49.352,99.221 49.439,99.495 49.599,99.923 L49.671,100.118 L49.976,99.94 L50.114,99.896 L50.309,99.833 L50.216,99.65 C50.061,99.343 49.909,99.033 49.767,98.716 C49.623,98.398 49.493,98.08 49.363,97.753 L49.293,97.575 L49.122,97.663 C48.708,97.874 48.288,98.089 47.866,98.279 L47.009,98.664 C46.586,98.853 46.146,99.026 45.703,99.2 L45.525,99.269 L45.61,99.442 C45.772,99.759 45.925,100.073 46.07,100.397 C46.216,100.721 46.349,101.043 46.476,101.364 L46.551,101.554 L46.847,101.379 L46.992,101.331 L47.212,101.259 L47.082,101.068 C46.906,100.811 46.656,100.282 46.453,99.833 C46.588,99.767 46.765,99.684 47.036,99.562 C47.337,99.427 47.491,99.358 47.598,99.312 C47.734,99.622 47.956,100.145 48.063,100.461 L48.131,100.663 L48.443,100.482 L48.586,100.434" id="Fill-13" style="fill: rgb(255, 255, 255);"/>
    <path d="M54.458,106.25 L54.325,106.061 L54.265,105.979 L54.165,105.989 C53.181,106.092 51.723,106.221 51.008,106.292 C51.444,105.318 51.867,104.394 52.344,103.457 L52.391,103.362 L52.33,103.275 L52.273,103.195 L52.181,103.067 L52.043,103.144 C51.034,103.709 49.7,104.377 48.602,104.911 L48.388,105.015 L48.683,105.329 L48.757,105.469 L48.84,105.67 L49.018,105.546 C49.417,105.264 50.264,104.794 50.995,104.395 C50.605,105.208 50.225,106.021 49.834,106.77 L49.784,106.866 L49.878,106.996 L49.942,107.086 L50.052,107.066 C50.939,106.904 51.812,106.822 52.692,106.743 C52.131,107.255 51.564,107.751 50.954,108.271 L50.807,108.394 L50.945,108.528 L51.108,108.712 L51.232,108.927 L51.338,109.143 L51.511,108.976 C52.413,108.101 53.311,107.314 54.346,106.354 L54.458,106.25" id="Fill-14" style="fill: rgb(255, 255, 255);"/>
    <path d="M56.567,111.986 L56.407,111.802 L57.287,110.859 L57.544,111.099 C57.809,111.341 57.939,111.543 57.935,111.699 C57.934,111.797 57.892,111.915 57.744,112.075 C57.566,112.265 57.409,112.32 57.253,112.321 C57.02,112.323 56.76,112.167 56.567,111.986 Z M58.097,110.86 C57.966,110.739 57.675,110.504 57.545,110.383 C57.414,110.261 57.281,110.124 57.158,109.985 L57.024,109.839 L56.895,109.993 C56.593,110.351 56.289,110.712 55.971,111.051 L55.333,111.737 C55.017,112.075 54.678,112.405 54.341,112.733 L54.187,112.883 L54.366,113.003 L54.573,113.164 L54.746,113.358 L54.877,113.53 L55.018,113.362 C55.318,113.005 55.624,112.642 55.94,112.304 L56.021,112.217 C56.09,112.286 56.153,112.353 56.234,112.428 C56.523,112.693 57.004,113.044 57.555,113.05 C57.851,113.053 58.162,112.935 58.417,112.659 C58.628,112.433 58.721,112.188 58.721,111.957 C58.71,111.416 58.276,111.035 58.097,110.86 Z" id="Fill-15" style="fill: rgb(255, 255, 255);"/>
    <path d="M63.691,115.116 C63.395,114.94 63.102,114.76 62.81,114.568 C62.519,114.377 62.238,114.178 61.956,113.972 L61.8,113.859 L61.701,114.024 C61.466,114.424 61.226,114.831 60.972,115.22 L60.454,116.003 C60.199,116.39 59.92,116.771 59.639,117.154 L59.526,117.307 L59.692,117.407 C59.997,117.589 60.294,117.772 60.591,117.968 C60.887,118.162 61.172,118.364 61.451,118.568 L61.617,118.687 L61.772,118.381 L61.868,118.265 L62.016,118.085 L61.802,117.993 C61.518,117.872 61.023,117.558 60.611,117.287 C60.69,117.16 60.795,116.995 60.959,116.747 C61.141,116.471 61.234,116.33 61.298,116.234 C61.579,116.423 62.047,116.745 62.308,116.955 L62.474,117.089 L62.64,116.768 L62.735,116.65 L62.869,116.488 L62.685,116.387 C62.41,116.236 62.102,116.061 61.62,115.75 C61.704,115.62 61.806,115.461 61.917,115.293 C62.023,115.132 62.117,115.005 62.215,114.869 C62.731,115.216 62.952,115.402 63.315,115.678 L63.481,115.804 L63.643,115.49 L63.736,115.377 L63.867,115.221 L63.691,115.116" id="Fill-16" style="fill: rgb(255, 255, 255);"/>
    <path d="M67.061,118.687 C67.197,118.38 67.347,118.074 67.498,117.764 C67.598,117.799 67.712,117.841 67.871,117.911 C68.002,117.968 68.136,118.051 68.231,118.148 C68.326,118.248 68.378,118.351 68.38,118.476 L68.329,118.699 C68.202,118.974 68.012,119.048 67.755,119.054 C67.572,119.057 67.366,118.999 67.197,118.925 C67.122,118.892 67.057,118.861 66.999,118.831 L67.061,118.687 Z M68.941,117.916 C68.764,117.738 68.534,117.598 68.279,117.488 C68.061,117.392 67.845,117.329 67.655,117.244 C67.456,117.157 67.26,117.06 67.066,116.958 L66.889,116.865 L66.82,117.05 C66.654,117.49 66.486,117.931 66.3,118.356 L65.924,119.217 C65.74,119.642 65.529,120.063 65.32,120.485 L65.223,120.678 L65.434,120.732 L65.681,120.813 L65.909,120.939 L66.09,121.055 L66.166,120.855 C66.332,120.415 66.501,119.973 66.686,119.549 L66.766,119.364 C67.02,120 67.311,121.138 67.385,121.506 L67.408,121.613 L67.512,121.64 C67.614,121.668 67.718,121.702 67.81,121.742 L68.1,121.897 L68.53,122.163 L68.355,121.687 C68.217,121.313 67.894,120.223 67.716,119.63 C67.807,119.643 67.901,119.652 68.001,119.652 C68.211,119.652 68.437,119.619 68.642,119.519 C68.849,119.42 69.034,119.247 69.142,118.996 C69.205,118.855 69.235,118.717 69.235,118.582 C69.235,118.321 69.116,118.093 68.941,117.916 Z" id="Fill-17" style="fill: rgb(255, 255, 255);"/>
    <path d="M98.669,120.806 C98.471,121.018 98.195,121.179 97.905,121.298 C97.695,121.383 97.491,121.448 97.335,121.49 C97.196,121.191 97.058,120.883 96.932,120.573 L96.58,119.703 C96.453,119.39 96.342,119.084 96.243,118.793 C96.433,118.693 96.654,118.583 96.908,118.48 C97.208,118.359 97.484,118.287 97.723,118.289 C97.948,118.289 98.139,118.347 98.319,118.486 C98.501,118.624 98.671,118.856 98.818,119.221 C98.939,119.519 98.988,119.774 98.988,119.99 C98.987,120.338 98.865,120.596 98.669,120.806 Z M99.674,118.873 C99.517,118.483 99.308,118.166 99.031,117.943 C98.755,117.716 98.412,117.597 98.023,117.597 C97.705,117.597 97.357,117.674 96.974,117.829 C96.692,117.945 96.424,118.082 96.162,118.188 C95.896,118.297 95.617,118.398 95.341,118.491 L95.157,118.555 L95.237,118.73 C95.436,119.156 95.636,119.585 95.81,120.015 L96.161,120.886 C96.336,121.315 96.491,121.762 96.646,122.205 L96.71,122.39 L96.886,122.305 C97.123,122.191 97.357,122.086 97.596,121.987 C97.83,121.894 98.08,121.823 98.335,121.717 C98.698,121.57 99.07,121.33 99.36,120.997 C99.648,120.664 99.852,120.231 99.852,119.723 C99.852,119.458 99.796,119.173 99.674,118.873 Z" id="Fill-18" style="fill: rgb(255, 255, 255);"/>
    <path d="M104.414,118.46 C104.152,118.072 103.889,117.679 103.652,117.28 L103.169,116.475 C102.931,116.077 102.71,115.66 102.489,115.245 L102.387,115.056 L102.221,115.195 L102.011,115.35 L101.776,115.46 L101.574,115.54 L101.694,115.721 C101.957,116.111 102.219,116.505 102.456,116.903 L102.938,117.708 C103.177,118.103 103.399,118.521 103.62,118.935 L103.721,119.127 L103.887,118.987 L104.099,118.833 L104.332,118.721 L104.535,118.642 L104.414,118.46" id="Fill-19" style="fill: rgb(255, 255, 255);"/>
    <path d="M109.504,113.172 C109.285,112.89 108.989,112.778 108.714,112.782 C108.442,112.784 108.184,112.868 107.943,112.948 C107.705,113.029 107.48,113.098 107.311,113.098 C107.158,113.094 107.054,113.059 106.937,112.918 C106.862,112.823 106.83,112.723 106.83,112.621 C106.83,112.468 106.907,112.301 107.08,112.162 C107.204,112.065 107.308,112.039 107.407,112.037 C107.532,112.036 107.657,112.09 107.751,112.143 L107.854,112.202 L108,112.085 L108.108,111.996 L108.049,111.872 C107.959,111.684 107.923,111.582 107.903,111.461 L107.877,111.31 L107.724,111.316 C107.394,111.324 107.09,111.447 106.781,111.694 C106.375,112.018 106.149,112.426 106.149,112.836 C106.147,113.086 106.235,113.331 106.401,113.54 C106.644,113.85 106.96,113.971 107.256,113.967 C107.527,113.967 107.785,113.883 108.022,113.808 C108.257,113.731 108.475,113.665 108.641,113.667 C108.792,113.669 108.891,113.703 109.004,113.84 C109.098,113.957 109.144,114.09 109.144,114.221 C109.142,114.395 109.064,114.576 108.868,114.736 C108.685,114.882 108.503,114.928 108.338,114.928 C108.199,114.928 108.069,114.892 107.971,114.847 L107.873,114.803 L107.789,114.869 L107.735,114.913 L107.613,115.01 L107.696,115.143 C107.806,115.32 107.845,115.388 107.892,115.547 L107.929,115.678 L108.065,115.675 C108.338,115.667 108.71,115.606 109.118,115.275 C109.574,114.915 109.8,114.452 109.8,114.007 C109.8,113.704 109.697,113.411 109.504,113.172" id="Fill-20" style="fill: rgb(255, 255, 255);"/>
    <path d="M114.318,108.919 L114.114,108.665 L114.056,108.592 L113.931,108.601 L113.789,108.615 L113.771,108.757 C113.741,109.027 113.686,109.481 113.354,109.847 C113.048,110.185 112.696,110.37 112.316,110.372 C111.982,110.37 111.611,110.228 111.211,109.87 C110.767,109.466 110.594,109.072 110.593,108.705 C110.593,108.369 110.739,108.04 111.012,107.736 C111.333,107.378 111.788,107.296 111.996,107.29 L112.103,107.286 L112.165,107.154 L112.206,107.061 L112.144,106.978 L111.938,106.654 L111.878,106.464 L111.697,106.547 C111.363,106.702 110.957,106.973 110.602,107.368 C110.135,107.885 109.876,108.469 109.876,109.047 C109.874,109.595 110.113,110.126 110.593,110.557 C111.018,110.94 111.502,111.129 111.983,111.127 C112.617,111.127 113.23,110.809 113.726,110.261 C113.935,110.027 114.086,109.78 114.188,109.566 C114.289,109.349 114.342,109.171 114.356,109.046 L114.362,108.975 L114.318,108.919" id="Fill-21" style="fill: rgb(255, 255, 255);"/>
    <path d="M117.833,103.949 L117.717,103.855 L117.535,103.709 L117.446,103.924 C117.328,104.211 117.023,104.711 116.759,105.128 C116.63,105.051 116.463,104.948 116.214,104.788 C115.936,104.612 115.793,104.521 115.696,104.458 C115.879,104.173 116.194,103.699 116.399,103.437 L116.531,103.268 L116.208,103.108 L116.089,103.014 L115.925,102.884 L115.826,103.069 C115.68,103.347 115.51,103.657 115.205,104.142 C115.074,104.061 114.914,103.962 114.746,103.854 C114.583,103.75 114.454,103.658 114.318,103.563 C114.657,103.041 114.836,102.818 115.109,102.449 L115.232,102.281 L114.913,102.124 L114.799,102.034 L114.641,101.905 L114.54,102.083 C114.368,102.383 114.193,102.678 114.005,102.971 C113.818,103.266 113.625,103.55 113.424,103.837 L113.312,103.994 L113.48,104.089 C113.883,104.319 114.295,104.552 114.686,104.8 L115.477,105.305 C115.868,105.554 116.254,105.827 116.641,106.101 L116.798,106.214 L116.894,106.046 C117.072,105.737 117.25,105.437 117.442,105.137 C117.631,104.839 117.828,104.549 118.027,104.267 L118.146,104.099 L117.833,103.949" id="Fill-22" style="fill: rgb(255, 255, 255);"/>
    <path d="M121.206,97.301 C120.981,97.215 119.859,96.769 119.345,96.559 C118.963,96.403 117.977,95.935 117.707,95.788 L117.485,95.668 L117.451,95.916 L117.415,96.056 L117.324,96.212 L117.217,96.395 L117.418,96.465 C118.099,96.699 118.922,97.03 119.716,97.354 C118.779,97.768 117.335,98.362 116.237,98.816 L116.17,98.844 L116.106,98.998 L116.036,99.172 L116.214,99.23 C116.434,99.303 116.928,99.504 117.563,99.763 C117.891,99.898 118.372,100.115 118.797,100.316 C119.22,100.514 119.598,100.705 119.685,100.763 L119.907,100.903 L119.952,100.646 L119.997,100.47 L120,100.467 L120,100.468 L120.079,100.329 L120.234,100.121 L119.984,100.055 C119.898,100.033 119.568,99.914 119.224,99.782 C118.875,99.651 118.5,99.503 118.284,99.415 C118.014,99.305 117.805,99.216 117.641,99.144 C118.828,98.638 120.056,98.115 121.173,97.704 L121.246,97.678 L121.275,97.606 L121.307,97.53 L121.374,97.365 L121.206,97.301" id="Fill-23" style="fill: rgb(255, 255, 255);"/>
    <path d="M121.634,90.76 L121.394,90.734 C121.115,90.733 120.886,90.851 120.718,91.011 C120.463,91.251 120.304,91.573 120.133,91.819 C120.049,91.942 119.964,92.046 119.878,92.111 C119.792,92.178 119.712,92.209 119.605,92.211 L119.492,92.198 C119.245,92.142 119.109,91.962 119.104,91.688 L119.121,91.526 C119.159,91.351 119.234,91.263 119.326,91.198 L119.626,91.083 L119.744,91.063 L119.78,90.876 L119.807,90.742 L119.682,90.683 C119.493,90.597 119.399,90.541 119.309,90.462 L119.194,90.361 L119.079,90.462 C118.83,90.68 118.672,90.968 118.593,91.354 C118.562,91.499 118.548,91.639 118.548,91.773 C118.541,92.401 118.902,92.905 119.475,93.019 L119.74,93.05 C120.027,93.05 120.264,92.934 120.439,92.776 C120.705,92.538 120.871,92.215 121.042,91.971 C121.127,91.847 121.21,91.745 121.294,91.68 C121.38,91.614 121.458,91.582 121.562,91.582 L121.672,91.594 C121.965,91.66 122.153,91.869 122.157,92.193 L122.138,92.37 C122.049,92.788 121.751,92.963 121.517,93.028 L121.415,93.055 L121.391,93.16 L121.377,93.227 L121.344,93.382 L121.493,93.432 C121.691,93.497 121.765,93.525 121.903,93.618 L122.015,93.697 L122.116,93.605 C122.321,93.426 122.569,93.141 122.675,92.628 C122.706,92.476 122.723,92.333 122.723,92.195 C122.727,91.449 122.264,90.889 121.634,90.76" id="Fill-24" style="fill: rgb(255, 255, 255);"/>
    <path d="M101.25,34.748 C101.422,34.126 101.248,33.44 101.361,33.485 C121.308,41.432 137.261,61.711 137.261,84.317 C137.261,114.007 112.968,138.075 83.002,138.075 C53.036,138.075 28.745,114.007 28.745,84.317 C28.745,58.381 45.63,36.72 70.292,31.66 C70.292,31.66 69.782,32.661 69.595,33.171 C69.409,33.681 69.319,34.667 69.319,34.667 C46.77,40.153 31.488,60.153 31.488,84.189 C31.488,112.445 54.606,135.349 83.122,135.349 C111.639,135.349 134.757,112.445 134.757,84.189 C134.757,62.892 119.527,43.766 100.846,36.064 C100.846,36.064 101.077,35.37 101.25,34.748" id="Fill-25" style="fill: rgb(255, 255, 255);"/>
    <path d="M50.257,34.137 L50.25,34.135 C50.237,34.131 50.227,34.129 50.213,34.125 L50.257,34.137" id="Fill-26" style="fill: rgb(255, 255, 255);"/>
    <path d="M56.271,31.791 C54.055,31.296 51.862,30.792 49.689,30.278 C47.721,29.813 45.785,29.367 43.863,28.931 C43.938,28.348 44.031,27.71 44.156,26.963 C44.326,25.951 44.519,24.906 44.732,23.829 L44.731,23.83 C44.947,22.752 45.167,21.689 45.395,20.645 C45.621,19.603 45.835,18.689 46.041,17.906 L46.684,15.453 L44.874,17.23 C44.726,17.376 44.575,17.52 44.42,17.66 L44.421,17.658 C44.281,17.786 44.134,17.903 43.98,18.012 C43.865,18.095 43.739,18.169 43.606,18.235 L43.604,18.237 C43.45,18.315 43.284,18.395 43.109,18.476 L42.753,18.641 L42.71,19.032 C42.604,19.971 42.49,20.943 42.365,21.948 C42.241,22.95 42.103,23.945 41.949,24.936 C41.797,25.925 41.631,26.891 41.454,27.831 C41.336,28.465 41.208,29.048 41.076,29.61 L40.868,29.313 C40.2,28.365 39.564,27.423 38.957,26.486 L38.957,26.485 C38.346,25.543 37.728,24.578 37.099,23.593 L36.639,22.874 L36.025,23.465 C35.86,23.623 35.701,23.773 35.543,23.915 C35.403,24.042 35.258,24.159 35.106,24.265 L35.102,24.268 C34.954,24.374 34.793,24.473 34.626,24.562 L34.628,24.561 C34.441,24.661 34.246,24.762 34.041,24.863 L33.275,25.242 L33.799,25.918 C34.516,26.841 35.215,27.749 35.899,28.641 C36.578,29.527 37.252,30.444 37.919,31.391 L40.55,35.124 C41.219,36.073 41.857,37.019 42.468,37.964 C43.083,38.914 43.686,39.852 44.272,40.778 L44.7,41.453 L45.31,40.939 C45.611,40.686 45.945,40.432 46.314,40.172 C46.681,39.913 47.034,39.684 47.373,39.487 L48.064,39.083 L47.572,38.453 C46.897,37.589 46.215,36.707 45.526,35.808 C44.842,34.915 44.167,33.995 43.5,33.047 L42.94,32.253 C43.189,32.311 43.459,32.376 43.771,32.454 L43.735,32.446 L43.77,32.454 C44.665,32.681 45.668,32.934 46.78,33.222 L46.719,33.206 L46.78,33.222 C47.892,33.508 49.036,33.81 50.213,34.125 L50.25,34.135 C51.421,34.45 52.48,34.717 53.425,34.938 L53.789,35.023 L54.061,34.768 C54.224,34.615 54.392,34.479 54.563,34.357 L54.556,34.362 L54.562,34.358 C54.761,34.218 54.961,34.076 55.166,33.932 C55.389,33.776 55.609,33.62 55.828,33.466 L55.81,33.479 L55.827,33.467 C56.024,33.329 56.228,33.204 56.442,33.092 L58.136,32.207 L56.271,31.791" id="Fill-27" style="fill: rgb(255, 255, 255);"/>
    <path d="M74.663,26.115 L74.663,26.116 C74.663,26.115 74.663,26.114 74.661,26.112 L74.663,26.115 Z M75.331,27.422 L74.829,26.575 C74.786,26.504 74.719,26.344 74.661,26.112 C74.635,26.003 74.609,25.886 74.587,25.757 L74.586,25.751 L74.585,25.745 L74.562,25.529 L74.563,25.493 L74.616,24.329 L73.564,24.831 C73.203,25.003 72.751,25.18 72.216,25.355 L72.205,25.359 C71.661,25.538 71.079,25.718 70.46,25.898 C69.839,26.078 69.201,26.248 68.549,26.41 L68.547,26.41 C68.132,26.513 67.756,26.605 67.37,26.701 C67.31,26.477 67.241,26.223 67.164,25.93 L67.164,25.931 C67,25.302 66.798,24.497 66.555,23.518 L66.172,21.971 L65.925,20.967 L65.924,20.964 C65.876,20.768 65.839,20.606 65.809,20.462 C65.992,20.419 66.185,20.374 66.408,20.322 C66.942,20.199 67.513,20.068 68.115,19.928 L68.116,19.928 C68.71,19.79 69.307,19.665 69.908,19.553 C70.508,19.44 71.035,19.354 71.483,19.297 L72.437,19.173 L72.025,18.304 C71.928,18.101 71.855,17.894 71.803,17.682 C71.746,17.451 71.714,17.225 71.704,17 L71.663,16.065 L70.778,16.37 C70.41,16.496 70.018,16.625 69.604,16.754 C69.184,16.885 68.726,17.025 68.229,17.175 C67.735,17.324 67.188,17.482 66.586,17.648 L66.67,17.625 L66.586,17.649 C66.175,17.763 65.708,17.885 65.218,18.01 C65.159,17.782 65.095,17.532 65.018,17.241 L65.018,17.24 C64.854,16.611 64.69,15.962 64.524,15.293 L64.52,15.276 L64.524,15.293 C64.37,14.668 64.246,14.109 64.15,13.617 C64.093,13.321 64.025,12.998 63.96,12.684 C64.526,12.55 65.05,12.431 65.488,12.342 C66.099,12.218 66.665,12.11 67.18,12.019 L67.182,12.018 C67.702,11.926 68.197,11.841 68.666,11.761 L68.803,11.738 L68.665,11.761 C69.138,11.681 69.66,11.589 70.23,11.485 L71.126,11.322 L70.737,10.498 C70.64,10.294 70.566,10.088 70.512,9.874 L70.512,9.875 C70.46,9.664 70.431,9.448 70.421,9.221 L70.383,8.327 L69.526,8.579 C68.752,8.807 67.985,9.029 67.226,9.243 L67.26,9.233 L67.225,9.243 C66.474,9.456 65.708,9.659 64.931,9.85 L64.93,9.85 C64.154,10.042 63.376,10.221 62.601,10.386 L62.603,10.385 C61.822,10.55 61.036,10.712 60.244,10.871 L59.496,11.022 L59.713,11.756 C60.037,12.842 60.356,13.929 60.671,15.016 L60.667,15.002 L60.67,15.015 C60.982,16.096 61.278,17.199 61.557,18.325 L62.652,22.759 C62.929,23.885 63.182,24.995 63.405,26.088 C63.63,27.188 63.852,28.293 64.072,29.405 L64.22,30.155 L64.953,29.94 C65.739,29.711 66.518,29.5 67.292,29.309 C68.078,29.115 68.87,28.92 69.673,28.721 L69.673,28.722 C70.476,28.523 71.266,28.328 72.04,28.137 L72.06,28.132 C72.819,27.945 73.588,27.772 74.365,27.617 L75.331,27.422 Z" id="Fill-28" style="fill: rgb(255, 255, 255);"/>
    <path d="M131.58,24.485 C131.26,24.375 131.038,24.267 130.938,24.199 L130.937,24.198 C130.794,24.106 130.599,23.937 130.371,23.693 L129.727,23 L129.254,23.82 C128.48,25.163 127.624,26.574 126.685,28.054 C125.744,29.539 124.763,31.058 123.746,32.609 L122.692,34.214 C122.548,33.482 122.397,32.69 122.239,31.822 C121.951,30.247 121.65,28.579 121.335,26.816 C121.02,25.055 120.707,23.273 120.398,21.473 C120.087,19.669 119.794,17.978 119.518,16.399 L119.466,16.101 L118.854,15.699 L118.232,15.292 L117.863,15.936 C117.576,16.438 117.097,17.208 116.438,18.229 L116.462,18.192 L116.438,18.228 C115.777,19.253 114.979,20.475 114.048,21.895 L114.047,21.896 C113.732,22.378 113.363,22.924 112.942,23.532 L112.942,23.533 C112.521,24.142 112.085,24.765 111.637,25.399 L111.637,25.4 C111.191,26.032 110.737,26.659 110.275,27.281 C109.809,27.909 109.379,28.491 108.984,29.027 L108.985,29.026 C108.595,29.556 108.252,30.005 107.959,30.371 L107.961,30.37 C107.669,30.736 107.455,30.985 107.368,31.071 L106.692,31.756 L107.554,32.187 C107.8,32.31 108.063,32.464 108.346,32.649 C108.611,32.822 108.841,32.994 109.036,33.16 L109.723,33.742 L110.116,32.933 C110.159,32.845 110.29,32.61 110.489,32.277 L110.489,32.276 C110.691,31.935 110.929,31.538 111.204,31.087 L111.209,31.077 C111.484,30.627 111.781,30.141 112.105,29.617 C112.429,29.091 112.749,28.577 113.07,28.071 L113.071,28.071 C113.394,27.562 113.702,27.076 113.996,26.613 L113.996,26.612 C114.287,26.151 114.535,25.766 114.736,25.461 L114.752,25.435 L114.736,25.46 C115.517,24.27 116.139,23.337 116.604,22.657 L116.615,22.644 C116.679,22.55 116.728,22.48 116.789,22.392 C117.297,25.168 117.805,27.949 118.303,30.741 C118.9,34.079 119.416,37.294 119.849,40.387 L119.894,40.7 L120.472,41.081 L121.057,41.464 L121.441,40.882 C121.548,40.718 121.708,40.475 121.922,40.147 C122.157,39.788 122.429,39.365 122.74,38.877 C123.047,38.392 123.379,37.868 123.736,37.309 L123.739,37.303 C124.095,36.745 124.448,36.189 124.799,35.641 L124.799,35.639 C125.148,35.089 125.488,34.564 125.817,34.063 C126.156,33.545 126.448,33.102 126.691,32.731 L126.679,32.75 L126.691,32.731 C126.963,32.315 127.348,31.761 127.842,31.076 L127.829,31.093 L127.842,31.075 C128.336,30.385 128.844,29.684 129.366,28.97 L129.368,28.97 C129.889,28.255 130.382,27.586 130.846,26.96 C131.308,26.337 131.659,25.874 131.895,25.581 L132.51,24.81 L131.58,24.485" id="Fill-29" style="fill: rgb(255, 255, 255);"/>
    <path d="M92.214,13.882 L93.528,18.441 C93.377,18.424 93.224,18.409 93.073,18.391 L93.071,18.391 C92.577,18.332 92.081,18.268 91.586,18.2 C91.133,18.139 90.663,18.064 90.175,17.98 L90.172,17.979 C90.03,17.954 89.898,17.937 89.757,17.914 L92.214,13.882 Z M85.303,23.547 C85.37,23.471 85.466,23.428 85.565,23.428 L85.61,23.431 C85.726,23.446 85.826,23.517 85.878,23.621 C85.972,23.809 86.06,24.014 86.145,24.228 C86.251,24.027 86.357,23.826 86.473,23.611 C87.035,22.567 87.655,21.469 88.319,20.33 C88.714,20.373 89.108,20.416 89.492,20.463 L89.442,20.456 L89.493,20.463 C90.023,20.526 90.563,20.597 91.11,20.672 L91.088,20.669 L91.111,20.672 C91.696,20.751 92.278,20.836 92.861,20.926 C93.292,20.991 93.713,21.06 94.134,21.13 C94.255,21.614 94.378,22.1 94.517,22.622 C94.696,23.299 94.871,23.967 95.044,24.624 L95.044,24.623 C95.214,25.274 95.367,25.895 95.501,26.487 L95.501,26.485 C95.624,27.036 95.717,27.5 95.781,27.887 C96.934,26.997 98.039,25.775 98.138,25.502 C98.19,25.356 98.302,24.998 98.302,24.998 C98.302,24.998 98.422,24.707 98.574,24.707 L98.935,24.818 C98.956,24.84 98.973,24.867 98.995,24.89 C98.837,24.352 98.673,23.787 98.499,23.175 L98.499,23.176 C98.187,22.089 97.853,20.915 97.501,19.653 C97.151,18.39 96.8,17.118 96.448,15.838 L96.446,15.826 L96.449,15.839 C96.1,14.558 95.758,13.293 95.422,12.041 L95.422,12.042 C95.086,10.788 94.776,9.625 94.486,8.548 L94.368,8.1 L93.401,7.967 L92.95,7.905 L92.711,8.293 C90.891,11.241 89.09,14.136 87.304,16.981 C85.518,19.825 83.694,22.681 81.833,25.55 L81.149,26.604 L81.749,26.616 C83.122,25.844 84.175,24.832 85.303,23.547 Z" id="Fill-30" style="fill: rgb(255, 255, 255);"/>
    <path d="M26.2,93.933 C26.119,93.681 26.087,93.481 26.085,93.336 L26.085,93.339 L26.084,93.294 C26.084,93.165 26.093,93.038 26.11,92.91 L26.112,92.904 C26.132,92.74 26.16,92.562 26.192,92.371 C26.228,92.148 26.158,91.921 26,91.761 C25.841,91.6 25.616,91.526 25.393,91.559 C24.94,91.631 23.997,91.692 22.631,91.731 C21.256,91.771 19.296,91.811 16.752,91.852 L16.753,91.852 C16.44,91.856 16.108,91.859 15.758,91.859 C15.496,91.859 15.224,91.857 14.941,91.855 L14.943,91.855 C14.31,91.847 13.677,91.798 13.043,91.707 C12.426,91.618 11.836,91.468 11.272,91.255 L11.273,91.256 C10.733,91.052 10.268,90.774 9.863,90.414 L9.861,90.413 C9.471,90.067 9.144,89.617 8.879,89.03 C8.633,88.484 8.486,87.758 8.47,86.847 L8.47,86.848 L8.469,86.677 C8.469,85.816 8.572,85.114 8.756,84.576 L8.757,84.574 C8.961,83.972 9.237,83.499 9.577,83.129 C9.926,82.748 10.33,82.459 10.806,82.247 C11.316,82.019 11.851,81.853 12.417,81.746 C13,81.637 13.601,81.567 14.222,81.541 C14.871,81.514 15.496,81.494 16.098,81.485 L16.099,81.485 C16.94,81.472 17.754,81.464 18.544,81.464 C18.693,81.464 18.842,81.464 18.989,81.465 L18.99,81.465 C19.916,81.467 20.781,81.48 21.58,81.503 C22.386,81.526 23.106,81.548 23.738,81.574 L23.739,81.574 C24.371,81.6 24.88,81.626 25.263,81.655 C25.483,81.671 25.698,81.584 25.842,81.418 C25.989,81.252 26.047,81.028 26.003,80.812 C25.965,80.629 25.933,80.451 25.907,80.277 L25.905,80.269 C25.881,80.118 25.866,79.962 25.864,79.799 L25.864,79.796 L25.863,79.714 C25.863,79.554 25.873,79.377 25.89,79.183 L25.891,79.177 C25.912,78.943 25.937,78.727 25.968,78.528 C26,78.317 25.935,78.106 25.792,77.948 C25.648,77.791 25.443,77.709 25.23,77.722 C24.43,77.77 23.447,77.82 22.284,77.875 L22.285,77.875 C21.13,77.929 19.801,77.968 18.3,77.992 L18.301,77.992 C18.141,77.994 17.983,77.996 17.825,77.996 C17.323,77.996 16.83,77.983 16.344,77.958 C15.854,77.934 15.318,77.92 14.734,77.92 C14.514,77.92 14.286,77.922 14.052,77.926 L14.051,77.926 C11.319,77.97 9.197,78.626 7.808,80.042 C6.471,81.417 5.873,83.474 5.873,86.093 L5.875,86.384 C5.896,87.658 6.094,88.808 6.485,89.828 C6.874,90.843 7.45,91.719 8.206,92.424 C8.955,93.124 9.86,93.655 10.899,94.014 L10.898,94.014 C11.935,94.374 13.085,94.547 14.341,94.547 L14.362,94.547 C15.345,94.551 16.359,94.56 17.404,94.579 L17.405,94.579 C18.454,94.598 19.476,94.616 20.47,94.637 L20.471,94.637 C21.46,94.656 22.387,94.685 23.25,94.724 L23.251,94.724 C24.116,94.763 24.86,94.805 25.483,94.847 C25.715,94.862 25.94,94.762 26.083,94.579 C26.227,94.396 26.27,94.156 26.2,93.933" id="Fill-31" style="fill: rgb(255, 255, 255);"/>
    <path d="M35.517,117.714 C35.299,117.459 35.161,117.256 35.108,117.148 C35.034,117.001 34.952,116.763 34.883,116.445 C34.835,116.227 34.686,116.045 34.483,115.953 C34.28,115.861 34.045,115.872 33.851,115.982 C32.487,116.749 31.014,117.535 29.436,118.339 C27.853,119.146 26.22,119.962 24.537,120.788 L22.8,121.64 C23.049,120.948 23.323,120.201 23.628,119.389 C24.189,117.895 24.787,116.311 25.419,114.642 C26.054,112.975 26.699,111.292 27.356,109.591 C28.015,107.889 28.631,106.29 29.205,104.801 C29.276,104.616 29.265,104.411 29.177,104.234 L28.984,103.85 C28.898,103.678 28.745,103.55 28.561,103.494 C28.376,103.437 28.179,103.459 28.01,103.554 C27.501,103.843 26.69,104.266 25.592,104.815 L25.592,104.814 C24.489,105.366 23.168,106.019 21.628,106.775 L21.626,106.776 C21.104,107.033 20.502,107.318 19.825,107.631 L19.824,107.631 C19.143,107.946 18.444,108.264 17.729,108.585 C17.015,108.906 16.298,109.218 15.574,109.525 L15.576,109.524 C14.848,109.83 14.175,110.117 13.556,110.381 L13.558,110.381 C12.943,110.642 12.415,110.858 11.973,111.027 L11.976,111.026 C11.532,111.193 11.214,111.305 11.101,111.333 C10.883,111.39 10.704,111.551 10.623,111.761 C10.542,111.972 10.568,112.21 10.691,112.399 C10.842,112.627 10.992,112.89 11.143,113.189 L11.142,113.186 C11.281,113.466 11.393,113.727 11.478,113.968 C11.55,114.171 11.712,114.33 11.918,114.398 C12.122,114.467 12.348,114.437 12.528,114.318 C12.607,114.265 12.843,114.128 13.188,113.94 L13.19,113.94 C13.539,113.747 13.95,113.526 14.421,113.276 L14.423,113.276 C14.896,113.023 15.408,112.752 15.963,112.459 L15.961,112.459 C16.513,112.169 17.057,111.887 17.595,111.614 L17.596,111.613 C18.138,111.338 18.658,111.073 19.151,110.821 L19.152,110.821 C19.643,110.57 20.056,110.363 20.391,110.197 L20.388,110.198 C21.686,109.561 22.715,109.067 23.471,108.715 C23.567,108.67 23.654,108.63 23.746,108.587 C22.762,111.214 21.775,113.844 20.773,116.478 L21.43,116.728 L20.773,116.478 C19.574,119.64 18.366,122.656 17.151,125.527 C17.071,125.717 17.078,125.933 17.171,126.118 L17.338,126.451 C17.512,126.796 17.928,126.935 18.274,126.766 C18.449,126.681 18.716,126.552 19.072,126.375 L19.07,126.376 C19.46,126.183 19.914,125.956 20.436,125.69 C20.952,125.427 21.511,125.143 22.108,124.841 L22.109,124.84 C22.706,124.535 23.3,124.235 23.891,123.933 L23.89,123.935 C24.478,123.637 25.044,123.355 25.588,123.088 C26.149,122.811 26.63,122.576 27.034,122.379 L27.034,122.378 C27.482,122.157 28.102,121.873 28.884,121.529 L28.885,121.529 C29.67,121.183 30.473,120.832 31.294,120.48 C32.116,120.126 32.889,119.797 33.614,119.49 L33.615,119.49 C34.336,119.184 34.88,118.96 35.231,118.827 C35.447,118.747 35.608,118.569 35.664,118.346 C35.722,118.122 35.668,117.889 35.517,117.714" id="Fill-32" style="fill: rgb(255, 255, 255);"/>
    <path d="M44.49,127.209 C44.3,127.077 44.124,126.95 43.958,126.827 L43.953,126.822 C43.808,126.716 43.667,126.596 43.53,126.467 C43.393,126.336 43.267,126.2 43.152,126.058 C43.019,125.894 42.883,125.724 42.745,125.545 C42.617,125.377 42.423,125.277 42.213,125.269 C42.002,125.262 41.802,125.347 41.662,125.505 C40.88,126.385 40.112,127.243 39.354,128.084 C38.603,128.92 37.82,129.754 37.005,130.589 L37.004,130.591 L33.794,133.886 C32.978,134.722 32.159,135.53 31.338,136.31 L31.338,136.309 C30.51,137.095 29.692,137.864 28.885,138.615 C28.736,138.755 28.654,138.953 28.661,139.156 C28.669,139.358 28.766,139.55 28.924,139.678 C29.228,139.921 29.542,140.197 29.864,140.506 L29.865,140.509 C30.189,140.814 30.478,141.115 30.734,141.408 C30.866,141.557 31.06,141.645 31.26,141.645 C31.461,141.645 31.654,141.559 31.788,141.41 C32.52,140.584 33.267,139.744 34.03,138.899 C34.788,138.058 35.575,137.219 36.389,136.382 L36.389,136.383 L39.6,133.09 L39.6,133.089 C40.416,132.251 41.231,131.446 42.046,130.676 L42.047,130.675 C42.868,129.894 43.709,129.102 44.568,128.298 C44.721,128.153 44.803,127.944 44.788,127.734 C44.773,127.523 44.663,127.329 44.49,127.209" id="Fill-33" style="fill: rgb(255, 255, 255);"/>
    <path d="M66.738,140.812 C66.675,140.554 66.47,140.35 66.21,140.293 C65.847,140.213 65.57,140.122 65.4,140.04 C65.228,139.958 64.979,139.801 64.688,139.574 C64.406,139.356 64.005,139.382 63.755,139.637 C63.325,140.077 62.808,140.595 62.204,141.19 C61.6,141.784 60.94,142.425 60.225,143.104 C59.507,143.789 58.76,144.501 57.982,145.243 L57.981,145.245 C57.21,145.985 56.437,146.709 55.673,147.412 L55.672,147.412 C54.905,148.118 54.161,148.793 53.432,149.438 L53.434,149.438 C53.172,149.67 52.928,149.883 52.683,150.098 C52.731,149.184 52.775,148.273 52.833,147.358 C52.926,145.889 53.023,144.442 53.125,143.02 C53.226,141.598 53.342,140.208 53.472,138.849 C53.603,137.492 53.744,136.206 53.896,134.988 C53.939,134.649 53.731,134.329 53.405,134.228 C53.172,134.157 52.948,134.083 52.729,134.009 L52.73,134.01 C52.531,133.942 52.346,133.867 52.177,133.788 C52.009,133.709 51.836,133.614 51.662,133.504 L51.655,133.501 C51.465,133.384 51.267,133.257 51.06,133.12 C50.85,132.98 50.581,132.964 50.355,133.079 C50.129,133.193 49.982,133.419 49.97,133.671 C49.89,135.323 49.798,137.067 49.697,138.904 C49.594,140.743 49.491,142.544 49.389,144.303 C49.286,146.058 49.18,147.729 49.074,149.307 C48.967,150.889 48.871,152.237 48.789,153.357 C48.766,153.687 48.973,153.987 49.29,154.083 C49.464,154.135 49.713,154.231 50.016,154.374 L50.015,154.374 C50.265,154.493 50.5,154.622 50.716,154.758 C50.987,154.931 51.339,154.898 51.573,154.681 C53.96,152.451 56.392,150.25 58.875,148.068 L58.876,148.068 C61.359,145.884 63.902,143.702 66.507,141.516 C66.712,141.346 66.802,141.071 66.738,140.812" id="Fill-34" style="fill: rgb(255, 255, 255);"/>
    <path d="M84.749,143.292 C84.808,143.085 84.768,142.858 84.64,142.683 C84.513,142.511 84.309,142.403 84.093,142.396 C83.287,142.373 82.492,142.347 81.704,142.314 C80.923,142.284 80.132,142.237 79.333,142.181 L79.335,142.181 C78.536,142.12 77.743,142.052 76.958,141.965 L76.956,141.963 C76.162,141.881 75.368,141.79 74.567,141.695 C74.371,141.674 74.175,141.732 74.026,141.861 C73.876,141.991 73.789,142.177 73.782,142.375 C73.752,143.508 73.715,144.64 73.676,145.776 C73.635,146.902 73.571,148.044 73.484,149.203 L73.141,153.767 C73.055,154.927 72.947,156.061 72.819,157.171 C72.69,158.291 72.556,159.413 72.418,160.54 C72.394,160.736 72.453,160.932 72.582,161.083 C72.711,161.232 72.896,161.321 73.093,161.327 C73.91,161.35 74.716,161.394 75.512,161.452 C76.318,161.511 77.132,161.571 77.956,161.632 L77.954,161.632 C78.779,161.694 79.589,161.755 80.387,161.812 L80.388,161.812 C81.173,161.869 81.963,161.944 82.754,162.039 C82.98,162.067 83.207,161.981 83.359,161.812 C83.513,161.644 83.573,161.409 83.523,161.187 C83.512,161.136 83.499,161.045 83.499,160.92 L83.509,160.697 L83.509,160.699 C83.518,160.589 83.531,160.464 83.549,160.328 L83.549,160.332 C83.564,160.224 83.586,160.139 83.61,160.075 C83.696,159.845 83.655,159.586 83.502,159.391 C83.349,159.199 83.105,159.1 82.861,159.133 C82.464,159.184 81.98,159.213 81.417,159.215 L81.337,159.215 C80.786,159.215 80.2,159.204 79.581,159.184 C78.933,159.163 78.277,159.128 77.606,159.079 C77.187,159.048 76.79,159.018 76.402,158.99 C76.414,158.759 76.428,158.496 76.447,158.196 L76.447,158.193 C76.486,157.544 76.544,156.714 76.62,155.71 L76.74,154.115 L76.741,154.115 L76.818,153.081 L76.818,153.079 C76.833,152.874 76.848,152.709 76.864,152.565 C77.051,152.582 77.247,152.598 77.475,152.619 L77.472,152.617 C78.021,152.669 78.601,152.719 79.22,152.772 C79.825,152.827 80.431,152.893 81.039,152.973 C81.642,153.051 82.167,153.133 82.612,153.22 C82.833,153.263 83.06,153.195 83.224,153.042 C83.389,152.887 83.47,152.667 83.441,152.442 C83.423,152.298 83.414,152.157 83.414,152.021 L83.423,151.78 C83.441,151.538 83.48,151.313 83.54,151.102 C83.604,150.889 83.559,150.66 83.423,150.483 C83.288,150.306 83.077,150.205 82.854,150.207 C82.652,150.211 82.441,150.211 82.226,150.211 C82.028,150.211 81.825,150.211 81.618,150.209 L81.622,150.209 C81.18,150.2 80.702,150.193 80.183,150.181 L80.181,150.181 C79.667,150.17 79.097,150.15 78.474,150.123 L78.471,150.12 C78.048,150.102 77.57,150.074 77.068,150.041 C77.084,149.808 77.101,149.548 77.12,149.251 L77.12,149.249 C77.158,148.598 77.205,147.93 77.256,147.241 C77.304,146.597 77.36,146.024 77.424,145.53 L77.425,145.53 C77.462,145.229 77.498,144.9 77.534,144.581 C78.112,144.629 78.647,144.678 79.09,144.729 L79.085,144.727 C79.708,144.803 80.278,144.874 80.796,144.947 L80.798,144.95 C81.319,145.02 81.815,145.095 82.285,145.165 L82.287,145.165 C82.762,145.236 83.286,145.31 83.858,145.388 C84.075,145.416 84.292,145.345 84.447,145.191 C84.602,145.038 84.678,144.82 84.65,144.604 C84.633,144.462 84.624,144.321 84.624,144.183 L84.633,143.939 L84.633,143.942 C84.65,143.722 84.687,143.508 84.749,143.292" id="Fill-35" style="fill: rgb(255, 255, 255);"/>
    <path d="M99.877,148.588 C99.542,148.683 99.237,148.763 98.97,148.821 L98.962,148.823 C98.903,148.837 98.858,148.837 98.801,148.848 L98.546,147.979 L98.547,147.979 C98.28,147.066 98.029,146.149 97.797,145.23 L97.797,145.228 C97.612,144.498 97.424,143.755 97.236,143.013 C97.359,142.966 97.481,142.919 97.622,142.869 C97.991,142.737 98.475,142.582 99.068,142.414 C99.467,142.3 99.893,142.223 100.346,142.185 L100.345,142.185 L100.613,142.175 C100.926,142.175 101.229,142.22 101.53,142.31 C101.894,142.421 102.213,142.608 102.52,142.901 C102.784,143.154 103.021,143.554 103.19,144.132 C103.302,144.514 103.354,144.854 103.354,145.157 C103.354,145.386 103.324,145.593 103.27,145.782 C103.125,146.281 102.895,146.695 102.573,147.052 L102.572,147.052 C102.234,147.427 101.833,147.733 101.36,147.984 C100.854,148.249 100.36,148.45 99.877,148.588 Z M112.146,155.416 C111.866,155.265 111.456,155.015 110.933,154.674 L110.932,154.672 C110.407,154.331 109.841,153.951 109.237,153.53 C108.627,153.105 107.994,152.66 107.336,152.194 C106.673,151.725 106.037,151.281 105.426,150.854 L105.424,150.854 C104.817,150.432 104.265,150.043 103.771,149.688 C103.677,149.621 103.605,149.57 103.519,149.508 C103.726,149.38 103.932,149.253 104.146,149.101 L104.144,149.104 C104.749,148.677 105.287,148.165 105.75,147.576 C106.229,146.966 106.583,146.264 106.804,145.489 C106.913,145.109 106.967,144.717 106.966,144.313 C106.966,143.827 106.889,143.333 106.741,142.83 C106.492,141.982 106.114,141.27 105.573,140.732 C105.059,140.223 104.439,139.858 103.751,139.653 L103.753,139.656 C103.231,139.498 102.679,139.423 102.104,139.423 C101.932,139.423 101.757,139.43 101.58,139.442 C100.833,139.498 100.076,139.637 99.31,139.856 C98.788,140.006 98.284,140.176 97.795,140.364 C97.344,140.536 96.877,140.694 96.398,140.83 L96.396,140.83 C95.909,140.973 95.426,141.096 94.948,141.208 L94.949,141.205 C94.46,141.317 93.964,141.43 93.458,141.538 C93.262,141.579 93.092,141.704 92.993,141.879 C92.894,142.054 92.876,142.263 92.94,142.453 C93.321,143.562 93.691,144.649 94.052,145.72 C94.409,146.777 94.75,147.865 95.077,148.983 L96.366,153.379 C96.692,154.495 96.993,155.599 97.267,156.694 C97.543,157.795 97.81,158.88 98.067,159.946 C98.113,160.142 98.244,160.31 98.421,160.403 C98.599,160.499 98.812,160.512 98.999,160.44 C99.365,160.3 99.764,160.169 100.197,160.043 L100.196,160.043 C100.624,159.92 101.033,159.823 101.421,159.745 C101.621,159.707 101.794,159.581 101.894,159.406 C101.995,159.229 102.015,159.018 101.948,158.826 C101.588,157.788 101.226,156.73 100.866,155.653 L100.865,155.651 C100.505,154.586 100.161,153.491 99.835,152.376 L99.487,151.188 L99.498,151.185 C100.133,151.555 100.836,151.996 101.626,152.537 L101.625,152.537 C102.521,153.157 103.408,153.778 104.28,154.408 C105.153,155.041 105.954,155.637 106.684,156.197 C107.419,156.761 107.968,157.183 108.326,157.467 C108.533,157.626 108.812,157.661 109.05,157.553 C109.246,157.465 109.459,157.387 109.688,157.322 L109.687,157.322 C109.95,157.246 110.201,157.173 110.439,157.106 C110.697,157.03 110.957,156.957 111.218,156.882 L111.214,156.882 C111.445,156.817 111.679,156.767 111.918,156.73 C112.216,156.683 112.453,156.452 112.504,156.154 C112.556,155.858 112.412,155.56 112.146,155.416 Z" id="Fill-36" style="fill: rgb(255, 255, 255);"/>
    <path d="M131.342,140.454 C131.118,139.606 130.727,138.812 130.181,138.092 L130.182,138.092 C129.535,137.231 128.782,136.619 127.911,136.343 L127.912,136.344 C127.324,136.156 126.718,136.063 126.106,136.063 C125.905,136.063 125.702,136.074 125.498,136.094 L125.496,136.094 C124.72,136.173 123.942,136.331 123.163,136.567 L123.162,136.567 C122.453,136.783 121.767,136.941 121.099,137.045 L121.1,137.045 C120.817,137.089 120.545,137.11 120.283,137.11 C119.961,137.11 119.654,137.077 119.358,137.014 C118.934,136.922 118.516,136.652 118.077,136.073 L118.074,136.072 C117.836,135.757 117.683,135.438 117.597,135.106 L117.597,135.104 C117.545,134.904 117.521,134.712 117.521,134.522 C117.521,134.391 117.533,134.263 117.556,134.132 L117.556,134.129 C117.614,133.803 117.735,133.494 117.931,133.186 L117.931,133.187 C118.122,132.89 118.381,132.613 118.724,132.361 L118.722,132.362 C119.063,132.112 119.368,131.974 119.632,131.922 L119.63,131.923 C119.835,131.883 120.028,131.863 120.213,131.863 C120.321,131.863 120.427,131.87 120.53,131.883 L120.532,131.883 C120.821,131.919 121.072,131.993 121.303,132.103 C121.58,132.24 121.814,132.369 122.001,132.493 C122.246,132.652 122.565,132.643 122.802,132.471 L123.061,132.281 C123.332,132.083 123.424,131.719 123.281,131.416 C123.064,130.953 122.901,130.566 122.794,130.264 L122.795,130.267 C122.692,129.972 122.617,129.677 122.572,129.384 C122.52,129.051 122.239,128.802 121.903,128.789 L121.669,128.786 C120.983,128.785 120.316,128.891 119.682,129.103 C118.964,129.342 118.245,129.74 117.51,130.282 L117.509,130.282 C116.738,130.852 116.106,131.485 115.629,132.185 L115.629,132.184 C115.159,132.872 114.833,133.6 114.671,134.357 C114.593,134.72 114.552,135.086 114.552,135.451 C114.552,135.847 114.6,136.24 114.691,136.629 C114.87,137.382 115.219,138.097 115.72,138.76 C116.407,139.671 117.181,140.32 118.07,140.632 C118.73,140.862 119.412,140.978 120.103,140.978 C120.248,140.978 120.392,140.974 120.537,140.964 C121.333,140.907 122.127,140.765 122.917,140.534 C123.638,140.323 124.331,140.163 124.998,140.051 L124.996,140.051 C125.282,140.003 125.558,139.981 125.824,139.981 C126.135,139.981 126.433,140.012 126.722,140.074 C127.149,140.167 127.561,140.432 127.986,140.992 C128.262,141.356 128.45,141.732 128.567,142.129 C128.649,142.412 128.688,142.685 128.688,142.953 C128.688,143.063 128.681,143.174 128.668,143.283 C128.622,143.661 128.5,144.023 128.284,144.395 C128.08,144.747 127.786,145.072 127.375,145.377 C126.97,145.675 126.577,145.873 126.188,145.99 C125.785,146.108 125.407,146.165 125.051,146.165 L125.022,146.165 C124.641,146.158 124.292,146.104 123.964,146.005 L123.968,146.007 C123.612,145.897 123.31,145.771 123.055,145.627 C122.813,145.491 122.515,145.511 122.291,145.675 L122.032,145.867 C121.741,146.083 121.662,146.484 121.849,146.795 C122.11,147.226 122.309,147.585 122.444,147.861 C122.567,148.111 122.686,148.429 122.794,148.819 C122.874,149.117 123.139,149.326 123.447,149.337 L123.672,149.339 C124.285,149.339 124.937,149.255 125.63,149.089 C126.492,148.882 127.375,148.416 128.319,147.721 C129.208,147.064 129.924,146.342 130.456,145.543 L130.458,145.543 C130.982,144.753 131.327,143.914 131.472,143.038 C131.525,142.705 131.554,142.373 131.554,142.041 C131.554,141.508 131.482,140.976 131.342,140.454" id="Fill-37" style="fill: rgb(255, 255, 255);"/>
    <path d="M145.182,129.388 C144.264,128.771 143.333,128.14 142.392,127.496 C141.455,126.852 140.518,126.183 139.58,125.485 L135.883,122.735 C134.945,122.037 134.038,121.332 133.162,120.625 C132.28,119.914 131.383,119.186 130.473,118.44 C130.311,118.308 130.096,118.255 129.892,118.295 C129.687,118.334 129.509,118.466 129.41,118.65 C129.303,118.847 129.197,119.034 129.092,119.218 L129.091,119.218 C128.996,119.381 128.893,119.537 128.783,119.682 L128.78,119.684 C128.67,119.829 128.55,119.969 128.418,120.104 C128.269,120.255 128.116,120.41 127.953,120.566 C127.798,120.714 127.722,120.92 127.74,121.133 C127.759,121.345 127.87,121.535 128.047,121.655 C129.023,122.313 129.979,122.966 130.916,123.606 L130.915,123.606 C131.845,124.242 132.777,124.908 133.716,125.607 L137.413,128.357 C138.352,129.057 139.262,129.763 140.145,130.473 L140.144,130.473 C141.033,131.191 141.904,131.9 142.758,132.603 C142.914,132.731 143.118,132.786 143.316,132.755 C143.514,132.723 143.69,132.606 143.798,132.436 C144.007,132.106 144.244,131.764 144.513,131.41 L144.515,131.408 C144.783,131.054 145.048,130.734 145.313,130.441 C145.45,130.292 145.514,130.087 145.488,129.885 C145.463,129.682 145.351,129.501 145.182,129.388" id="Fill-38" style="fill: rgb(255, 255, 255);"/>
    <path d="M155.884,109.745 C155.802,109.56 155.642,109.418 155.448,109.359 C154.386,109.036 153.309,108.703 152.215,108.361 L152.217,108.361 C151.13,108.019 150.036,107.652 148.932,107.257 L148.931,107.257 L144.581,105.703 C143.053,105.157 141.542,104.587 140.041,104.008 C140.128,103.776 140.209,103.554 140.302,103.31 C140.483,102.845 140.669,102.382 140.866,101.924 L140.866,101.921 C141.062,101.459 141.257,101.016 141.451,100.589 L141.451,100.59 C141.641,100.17 141.822,99.8 141.99,99.486 C142.103,99.277 142.101,99.024 141.988,98.816 C141.874,98.608 141.66,98.471 141.424,98.454 C141.134,98.432 140.913,98.387 140.776,98.337 C140.663,98.298 140.445,98.186 140.167,97.999 C139.985,97.878 139.754,97.849 139.548,97.919 C139.342,97.991 139.178,98.157 139.11,98.364 C138.742,99.477 138.379,100.565 138.021,101.623 C137.666,102.682 137.286,103.76 136.886,104.857 C136.485,105.955 136.081,107.023 135.673,108.061 C135.265,109.104 134.844,110.172 134.408,111.261 C134.326,111.465 134.345,111.697 134.459,111.886 C134.574,112.075 134.771,112.199 134.99,112.221 C135.327,112.253 135.563,112.304 135.656,112.338 C135.816,112.396 136.016,112.5 136.249,112.665 C136.442,112.802 136.69,112.831 136.911,112.745 C137.132,112.658 137.293,112.467 137.342,112.235 C137.415,111.884 137.513,111.487 137.637,111.045 C137.764,110.595 137.899,110.13 138.047,109.652 L138.047,109.649 C138.193,109.172 138.348,108.698 138.511,108.226 L138.51,108.226 C138.597,107.976 138.679,107.751 138.763,107.514 C140.295,108.018 141.828,108.534 143.358,109.082 L147.709,110.636 L147.708,110.636 C148.814,111.032 149.894,111.442 150.949,111.864 L150.948,111.864 C152.01,112.29 153.055,112.715 154.079,113.138 C154.266,113.216 154.476,113.208 154.658,113.119 C154.84,113.028 154.973,112.866 155.025,112.67 C155.125,112.297 155.252,111.9 155.405,111.48 C155.557,111.064 155.715,110.681 155.879,110.328 C155.966,110.144 155.968,109.931 155.884,109.745" id="Fill-39" style="fill: rgb(255, 255, 255);"/>
    <path d="M159.958,83.929 L159.958,83.925 C159.955,83.809 159.954,83.696 159.954,83.585 C159.954,83.268 159.965,82.968 159.983,82.681 C159.997,82.474 159.918,82.27 159.767,82.126 C159.617,81.982 159.41,81.913 159.203,81.936 C158.847,81.976 158.357,82.017 157.749,82.055 L157.747,82.055 C157.134,82.094 156.467,82.131 155.748,82.161 L155.746,82.161 C155.023,82.193 154.287,82.224 153.538,82.246 C152.85,82.267 152.206,82.284 151.594,82.297 C151.08,82.044 150.514,81.751 149.882,81.41 C149.189,81.035 148.41,80.6 147.543,80.105 L147.543,80.106 C146.68,79.611 145.715,79.038 144.646,78.388 L144.648,78.389 C143.579,77.735 142.381,76.995 141.058,76.17 C140.817,76.019 140.512,76.029 140.281,76.193 C140.049,76.358 139.939,76.642 140,76.919 C140.094,77.334 140.136,77.648 140.139,77.818 L140.139,77.816 L140.14,77.847 C140.141,78.022 140.109,78.325 140.037,78.719 C139.979,79.04 140.147,79.357 140.447,79.488 C141.217,79.825 142.012,80.187 142.829,80.577 L142.83,80.578 C143.646,80.965 144.456,81.372 145.264,81.796 C146.075,82.222 146.869,82.647 147.644,83.074 C148.029,83.285 148.397,83.493 148.749,83.696 C147.508,84.427 146.294,85.136 145.131,85.806 C143.647,86.658 142.138,87.498 140.6,88.325 C140.337,88.467 140.192,88.76 140.24,89.056 C140.281,89.302 140.315,89.537 140.346,89.766 L140.346,89.768 C140.374,89.979 140.391,90.198 140.396,90.423 L140.396,90.42 L140.396,90.541 C140.396,90.724 140.389,90.902 140.373,91.078 C140.352,91.309 140.326,91.547 140.296,91.789 C140.263,92.061 140.389,92.326 140.62,92.47 C140.851,92.616 141.144,92.615 141.373,92.466 C141.653,92.287 142.071,92.021 142.627,91.673 C143.183,91.325 143.811,90.937 144.51,90.504 L144.509,90.505 C145.21,90.074 145.944,89.618 146.715,89.14 C147.484,88.663 148.219,88.209 148.917,87.777 L148.917,87.778 C149.619,87.346 150.256,86.95 150.832,86.593 L150.834,86.592 C151.323,86.287 151.69,86.059 151.979,85.883 C153.358,85.856 154.684,85.838 155.949,85.829 C156.067,85.829 156.183,85.828 156.297,85.828 C157.457,85.828 158.45,85.868 159.269,85.945 C159.479,85.966 159.687,85.89 159.835,85.739 C159.983,85.589 160.057,85.38 160.034,85.17 C159.992,84.785 159.966,84.371 159.958,83.929" id="Fill-40" style="fill: rgb(255, 255, 255);"/>
    <path d="M23.832,58.098 C21.717,58.098 19.973,56.392 19.973,54.202 C19.935,52.049 21.717,50.307 23.869,50.307 C26.021,50.307 27.765,52.013 27.765,54.202 C27.765,56.354 26.021,58.098 23.869,58.098 L23.832,58.098" id="Fill-41" style="fill: rgb(255, 255, 255);"/>
    <path d="M140.39,58.098 C138.274,58.098 136.53,56.39 136.53,54.201 C136.492,52.049 138.274,50.307 140.425,50.307 C142.578,50.307 144.323,52.013 144.323,54.201 C144.323,56.352 142.578,58.098 140.425,58.098 L140.39,58.098" id="Fill-42" style="fill: rgb(255, 255, 255);"/>
    <path d="M58.709,51.86 C58.675,51.352 58.649,50.834 58.634,50.306 C58.618,49.777 58.609,49.237 58.609,48.687 L58.609,46.586 C58.609,46.037 58.618,45.493 58.634,44.955 C58.649,44.418 58.675,43.874 58.71,43.324 L58.721,43.13 L58.475,42.955 L58.304,42.834 L58.117,42.927 C57.683,43.143 57.22,43.367 56.724,43.596 L56.722,43.596 C56.228,43.824 55.747,44.034 55.274,44.225 L55.054,44.312 L55.054,44.829 L55.218,44.932 C55.328,45.003 55.408,45.087 55.475,45.208 L55.644,45.515 L55.951,45.344 L56.93,44.803 L56.93,48.687 C56.93,49.238 56.923,49.776 56.91,50.302 C56.899,50.824 56.871,51.342 56.83,51.855 L56.793,52.304 L57.237,52.227 L57.473,52.207 C57.57,52.207 57.669,52.207 57.769,52.207 C57.871,52.207 57.969,52.207 58.066,52.207 L58.301,52.227 L58.738,52.303 L58.709,51.86" id="Fill-43" style="fill: rgb(255, 255, 255);"/>
    <path d="M62.152,46.193 C62.152,46.193 62.152,46.193 62.152,46.192 C62.151,46.192 62.151,46.192 62.151,46.191 L62.152,46.193" id="Fill-44" style="fill: rgb(255, 255, 255);"/>
    <path d="M63.072,47.246 L63.07,47.245 C63.071,47.246 63.072,47.246 63.072,47.246 Z M63.979,46.338 L63.976,46.333 C63.896,46.227 63.835,46.099 63.794,45.941 L63.794,45.942 C63.751,45.771 63.729,45.597 63.729,45.417 C63.729,45.225 63.751,45.051 63.794,44.887 L63.794,44.888 C63.833,44.734 63.894,44.608 63.976,44.5 L63.972,44.504 L63.977,44.498 C64.052,44.397 64.146,44.317 64.275,44.25 L64.265,44.255 L64.275,44.249 C64.389,44.191 64.535,44.156 64.727,44.156 C64.928,44.156 65.074,44.192 65.18,44.248 C65.305,44.314 65.402,44.396 65.486,44.503 L65.487,44.505 C65.57,44.613 65.632,44.737 65.67,44.887 L65.672,44.889 C65.713,45.051 65.735,45.225 65.735,45.417 C65.735,45.598 65.714,45.771 65.671,45.94 L65.67,45.942 C65.631,46.096 65.57,46.222 65.488,46.329 C65.405,46.435 65.306,46.517 65.18,46.585 C65.074,46.641 64.927,46.678 64.727,46.678 C64.536,46.678 64.39,46.642 64.275,46.583 C64.147,46.517 64.054,46.437 63.979,46.338 Z M66.062,49.544 C66.062,49.823 66.026,50.07 65.959,50.288 L65.959,50.287 C65.89,50.508 65.795,50.692 65.676,50.845 L65.677,50.844 C65.56,50.994 65.426,51.104 65.262,51.186 C65.104,51.266 64.926,51.307 64.714,51.307 C64.5,51.307 64.324,51.266 64.165,51.186 C64.001,51.104 63.868,50.994 63.75,50.844 C63.632,50.692 63.538,50.51 63.468,50.288 L63.468,50.286 C63.4,50.07 63.365,49.824 63.365,49.544 C63.365,49.263 63.4,49.015 63.468,48.799 L63.47,48.796 L63.468,48.797 C63.537,48.579 63.63,48.397 63.748,48.245 L63.751,48.241 C63.868,48.091 64.001,47.982 64.165,47.899 C64.323,47.821 64.5,47.778 64.714,47.778 C64.927,47.778 65.104,47.821 65.262,47.899 C65.426,47.982 65.56,48.091 65.677,48.243 C65.795,48.395 65.89,48.577 65.959,48.798 L65.959,48.797 C66.026,49.015 66.062,49.263 66.062,49.544 Z M67.869,49.316 C67.869,48.89 67.794,48.51 67.628,48.188 C67.479,47.896 67.291,47.647 67.065,47.452 L67.061,47.449 C66.891,47.299 66.704,47.186 66.509,47.095 C66.719,46.949 66.899,46.774 67.044,46.568 C67.321,46.176 67.467,45.725 67.466,45.253 C67.466,44.963 67.407,44.68 67.292,44.416 C67.176,44.144 66.996,43.905 66.766,43.705 C66.532,43.502 66.244,43.348 65.91,43.231 C65.56,43.109 65.162,43.055 64.714,43.055 C64.319,43.055 63.95,43.114 63.615,43.24 C63.29,43.363 63.004,43.532 62.764,43.746 L62.761,43.749 L62.763,43.748 C62.525,43.961 62.335,44.211 62.202,44.492 L62.202,44.493 C62.066,44.779 61.999,45.087 61.999,45.405 C61.999,45.679 62.047,45.946 62.152,46.192 C62.249,46.429 62.381,46.639 62.544,46.816 C62.675,46.96 62.828,47.072 62.986,47.176 C62.589,47.392 62.263,47.663 62.038,48.005 C61.72,48.486 61.558,49.03 61.559,49.606 C61.559,50.042 61.637,50.444 61.807,50.8 L61.802,50.791 L61.806,50.799 C61.969,51.145 62.2,51.445 62.489,51.685 C62.78,51.929 63.126,52.105 63.513,52.213 L63.512,52.213 C63.889,52.319 64.29,52.371 64.714,52.371 C65.134,52.371 65.538,52.307 65.915,52.176 L65.917,52.176 C66.3,52.043 66.641,51.838 66.933,51.566 L66.928,51.57 L66.935,51.566 C67.225,51.294 67.455,50.964 67.619,50.588 L67.619,50.589 C67.788,50.204 67.869,49.777 67.869,49.316 Z" id="Fill-45" style="fill: rgb(255, 255, 255);"/>
    <path d="M67.061,47.448 C67.063,47.449 67.064,47.451 67.065,47.452 L67.066,47.452 L67.061,47.448" id="Fill-46" style="fill: rgb(255, 255, 255);"/>
    <path d="M102.714,50.435 L102.712,50.439 C102.711,50.44 102.711,50.442 102.711,50.443 L102.714,50.435" id="Fill-47" style="fill: rgb(255, 255, 255);"/>
    <path d="M101.316,46.683 L101.333,46.691 C101.335,46.692 101.337,46.692 101.338,46.693 L101.316,46.683" id="Fill-48" style="fill: rgb(255, 255, 255);"/>
    <path d="M102.771,48.156 C102.643,47.829 102.454,47.538 102.216,47.288 L102.214,47.288 C101.971,47.034 101.674,46.834 101.336,46.693 L101.333,46.691 C100.987,46.546 100.608,46.476 100.201,46.476 C99.803,46.477 99.491,46.507 99.233,46.587 L99.232,46.587 C99.212,46.594 99.196,46.604 99.176,46.611 L99.297,44.649 C99.423,44.65 99.563,44.651 99.719,44.654 L99.718,44.654 C100.025,44.658 100.346,44.665 100.68,44.677 L100.678,44.677 C101.013,44.69 101.33,44.706 101.63,44.727 C101.928,44.747 102.164,44.774 102.328,44.805 L102.917,44.911 L102.73,44.372 L102.727,44.247 C102.727,44.142 102.732,44.035 102.745,43.925 L102.745,43.924 L102.799,43.642 L102.869,43.417 L102.622,43.219 L102.517,43.135 L102.383,43.142 C102.241,43.15 102.014,43.158 101.708,43.161 L101.675,43.162 L101.707,43.161 C101.399,43.165 101.043,43.167 100.641,43.167 C99.993,43.167 99.489,43.155 99.134,43.131 C98.812,43.106 98.582,43.081 98.464,43.06 L98.326,43.036 L98.096,43.189 L97.912,43.311 L97.944,43.53 C97.982,43.798 98.01,44.116 98.021,44.477 C98.034,44.848 98.041,45.206 98.041,45.555 C98.041,45.911 98.034,46.27 98.021,46.63 C98.011,46.98 97.975,47.31 97.92,47.618 L97.879,47.85 L98.216,48.064 L98.409,48.186 L98.599,48.059 C98.645,48.027 98.792,47.945 99.003,47.834 C99.152,47.756 99.383,47.703 99.698,47.703 C99.888,47.703 100.066,47.733 100.24,47.791 L100.239,47.791 C100.402,47.848 100.539,47.932 100.667,48.057 L100.671,48.06 L100.668,48.058 C100.792,48.178 100.898,48.338 100.983,48.553 C101.063,48.752 101.111,49.011 101.11,49.329 C101.11,49.69 101.06,49.993 100.967,50.239 L100.967,50.241 C100.872,50.499 100.75,50.701 100.611,50.854 C100.466,51.011 100.309,51.121 100.129,51.192 L100.137,51.189 L100.128,51.194 C99.938,51.27 99.744,51.307 99.534,51.307 C99.394,51.307 99.245,51.292 99.085,51.257 L99.083,51.257 C98.93,51.225 98.788,51.178 98.651,51.11 L98.649,51.108 C98.514,51.044 98.397,50.964 98.291,50.871 L98.291,50.87 C98.192,50.778 98.116,50.681 98.06,50.569 L97.963,50.376 L97.363,50.376 L97.316,50.668 C97.301,50.758 97.277,50.869 97.245,51.003 L97.246,51 L97.247,50.999 C97.214,51.128 97.18,51.24 97.145,51.33 L97.123,51.391 L97.123,51.739 L97.273,51.843 C97.584,52.058 97.943,52.2 98.333,52.27 C98.704,52.337 99.087,52.371 99.483,52.371 C99.989,52.371 100.458,52.293 100.883,52.135 C101.303,51.978 101.675,51.755 101.986,51.467 C102.296,51.18 102.542,50.834 102.711,50.441 L102.712,50.439 C102.881,50.048 102.966,49.627 102.966,49.19 C102.966,48.831 102.901,48.483 102.771,48.156" id="Fill-49" style="fill: rgb(255, 255, 255);"/>
    <path d="M109.961,49.19 C109.961,48.831 109.896,48.483 109.767,48.156 C109.637,47.83 109.448,47.538 109.21,47.288 L109.196,47.274 L109.209,47.288 C108.965,47.034 108.669,46.834 108.331,46.693 L108.346,46.698 L108.333,46.693 C107.986,46.546 107.604,46.476 107.195,46.476 C106.798,46.477 106.485,46.507 106.229,46.587 L106.228,46.587 C106.208,46.594 106.19,46.605 106.17,46.612 L106.292,44.649 C106.417,44.65 106.557,44.651 106.713,44.654 L106.712,44.654 C107.021,44.658 107.34,44.665 107.674,44.677 L107.672,44.677 C108.007,44.69 108.324,44.706 108.624,44.727 C108.922,44.747 109.159,44.774 109.321,44.805 L109.898,44.909 L109.726,44.381 L109.723,44.247 C109.723,44.142 109.727,44.035 109.74,43.925 L109.74,43.922 L109.795,43.642 L109.863,43.416 L109.615,43.218 L109.511,43.135 L109.377,43.142 C109.235,43.15 109.008,43.158 108.702,43.161 C108.393,43.165 108.037,43.167 107.636,43.167 C106.987,43.167 106.479,43.155 106.125,43.131 L106.129,43.131 C105.808,43.106 105.577,43.081 105.458,43.06 L105.319,43.036 L105.09,43.189 L104.908,43.312 L104.938,43.529 C104.977,43.798 105.004,44.116 105.017,44.479 C105.029,44.848 105.035,45.207 105.035,45.555 C105.035,45.911 105.029,46.27 105.017,46.631 C105.005,46.98 104.97,47.31 104.915,47.618 L104.874,47.85 L105.21,48.064 L105.403,48.186 L105.593,48.059 C105.64,48.027 105.786,47.945 105.998,47.833 L105.998,47.834 C106.146,47.756 106.377,47.703 106.692,47.703 C106.881,47.703 107.061,47.733 107.235,47.791 L107.234,47.791 C107.396,47.848 107.533,47.932 107.662,48.057 L107.666,48.06 L107.663,48.058 C107.787,48.178 107.893,48.338 107.978,48.552 L107.979,48.556 L107.979,48.553 C108.059,48.752 108.104,49.01 108.104,49.329 C108.104,49.691 108.054,49.994 107.962,50.239 L107.961,50.241 C107.867,50.5 107.746,50.701 107.605,50.854 C107.46,51.012 107.303,51.121 107.124,51.192 L107.123,51.194 C106.932,51.27 106.738,51.307 106.529,51.307 C106.388,51.307 106.239,51.292 106.08,51.257 L106.076,51.257 C105.923,51.225 105.781,51.178 105.646,51.11 L105.644,51.108 C105.508,51.044 105.39,50.964 105.283,50.869 L105.286,50.87 C105.186,50.778 105.112,50.681 105.055,50.569 L104.958,50.376 L104.362,50.376 L104.31,50.664 C104.294,50.759 104.271,50.871 104.24,51.003 L104.241,51 C104.21,51.127 104.175,51.238 104.14,51.33 L104.117,51.391 L104.117,51.739 L104.268,51.843 C104.579,52.058 104.938,52.2 105.328,52.27 L105.329,52.27 C105.699,52.337 106.082,52.371 106.479,52.371 C106.984,52.371 107.452,52.293 107.877,52.135 C108.297,51.978 108.669,51.755 108.98,51.467 L108.972,51.475 L108.981,51.467 C109.291,51.179 109.536,50.834 109.705,50.441 L109.705,50.444 C109.876,50.051 109.961,49.629 109.961,49.19" id="Fill-50" style="fill: rgb(255, 255, 255);"/>
    <path d="M89.424,39.81 C89.424,39.81 89.802,39.829 90.427,39.719 C91.053,39.608 92.555,38.917 92.555,38.917 C95.134,37.553 96.348,35.462 97.152,33.413 C97.476,32.585 97.488,31.279 97.577,30.788 C97.452,30.912 97.481,31.13 96.843,31.574 C94.658,33.096 94.07,33.529 90.682,33.778 L90.66,33.778 C90.441,33.778 90.141,33.747 89.876,33.713 C89.381,33.646 89.108,33.61 89.108,33.32 L89.144,33.184 C89.327,32.851 89.857,31.646 89.915,31.252 C89.931,31.157 89.95,31.057 89.972,30.96 C89.796,31.076 86.157,32.864 83.879,33.049 L82.822,33.067 L82.673,33.103 C82.501,33.103 82.321,32.981 82.302,32.825 C82.29,32.725 82.352,32.623 82.444,32.553 L82.606,32.341 C83.241,31.507 83.897,30.649 84.091,29.678 L83.273,30.159 C82.498,30.616 81.618,31.134 80.532,31.472 C79.898,31.671 79.223,31.813 78.568,31.952 C76.715,32.346 74.962,32.718 74.108,34.265 C73.691,35.011 73.775,36.451 74.125,37.193 C75.191,39.463 77.831,39.776 80.525,39.776 L80.526,39.776 C81.117,39.776 81.716,39.761 82.306,39.745 C82.87,39.732 88.932,39.81 89.424,39.81 Z M87.392,42.917 C86.475,42.917 85.545,42.884 84.63,42.85 C83.749,42.819 82.88,42.788 82.046,42.788 C81.514,42.788 80.962,42.808 80.403,42.826 C79.825,42.847 79.236,42.868 78.656,42.868 C77.755,42.868 77.036,42.818 76.39,42.709 C73.594,42.238 71.339,40.124 70.735,37.473 C70.149,34.897 70.869,32.906 72.763,31.297 C73.406,30.752 75.886,30.136 75.886,30.136 L78.053,29.676 L80.196,29.056 C82.313,28.333 83.651,27.251 85.117,25.74 C85.182,25.673 85.276,25.635 85.373,25.635 L85.417,25.638 C85.53,25.651 85.627,25.714 85.677,25.806 C86.295,26.928 86.765,28.644 86.416,29.951 L86.4,30.014 C87.335,29.825 89.365,29.284 90.813,27.975 C92.756,26.219 93.175,25.42 93.179,25.412 C93.236,25.303 93.355,25.233 93.489,25.233 L93.518,25.234 C93.658,25.244 93.779,25.332 93.817,25.456 C93.833,25.504 94.163,26.627 93.34,28.707 C92.969,29.651 92.57,30.45 92.285,30.834 C92.661,30.789 93.196,30.512 93.797,30.361 C95.203,30.003 97.04,28.69 97.277,28.388 C97.515,28.083 98.399,27.161 98.451,26.664 C98.451,26.664 99.904,30.471 99.596,33.749 C99.195,38.021 95.869,41.797 90.941,42.662 C89.939,42.836 88.812,42.917 87.392,42.917 Z" id="Fill-51" style="fill: rgb(255, 255, 255);"/>
  </g>
</svg>