<?xml version="1.0" standalone="no"?>
<!DOCTYPE svg PUBLIC "-//W3C//DTD SVG 20010904//EN"
 "http://www.w3.org/TR/2001/REC-SVG-20010904/DTD/svg10.dtd">
<svg version="1.0" xmlns="http://www.w3.org/2000/svg"
 width="615.000000pt" height="615.000000pt" viewBox="0 0 615.000000 615.000000"
 preserveAspectRatio="xMidYMid meet">
<metadata>
Created by potrace 1.14, written by Peter Selinger 2001-2017
</metadata>
<g transform="translate(0.000000,615.000000) scale(0.100000,-0.100000)"
fill="#000000" stroke="none">
<path d="M2977 5034 c-1 -1 -36 -5 -77 -8 -130 -11 -318 -47 -377 -71 -18 -8
-33 -12 -33 -10 0 9 -173 -60 -269 -107 -671 -325 -1099 -999 -1104 -1738 -1
-123 8 -284 18 -313 2 -7 6 -28 9 -48 8 -54 43 -197 64 -264 219 -675 790
-1183 1482 -1319 135 -27 153 -28 355 -31 138 -3 226 1 285 10 47 8 101 17
120 20 66 10 219 54 317 91 509 190 935 611 1128 1114 42 107 65 180 59 180
-3 0 0 8 5 18 13 25 48 198 58 287 10 90 10 370 0 458 -24 216 -94 451 -194
652 -166 331 -442 625 -763 811 -256 149 -533 237 -820 260 -76 6 -259 12
-263 8z m295 -98 c441 -53 832 -243 1134 -551 303 -308 492 -720 529 -1150 7
-80 7 -265 0 -330 -11 -105 -13 -118 -30 -202 -22 -117 -85 -303 -142 -424
-244 -513 -698 -884 -1253 -1019 -591 -145 -1220 11 -1674 415 -198 176 -340
366 -455 607 -126 265 -181 528 -176 838 14 748 476 1411 1182 1696 147 59
349 107 503 120 41 4 76 8 78 9 5 4 256 -3 304 -9z"/>
<path d="M3252 4808 c-95 -150 -232 -369 -232 -374 0 -13 24 0 59 31 22 20 44
34 50 33 6 -2 21 15 34 37 24 43 25 43 104 32 50 -7 53 -9 63 -45 5 -20 13
-54 16 -75 4 -20 10 -40 14 -42 11 -7 70 62 70 81 0 9 -13 62 -29 118 -16 55
-39 138 -51 184 -28 103 -42 106 -98 20z m47 -165 c1 -8 -12 -13 -34 -13 -41
0 -42 6 -13 56 l22 37 12 -34 c7 -19 13 -40 13 -46z"/>
<path d="M2630 4828 c-63 -17 -116 -32 -118 -33 -2 -2 6 -36 18 -75 12 -40 37
-138 55 -217 19 -80 36 -147 38 -149 2 -2 61 10 131 27 107 27 126 34 120 48
-4 9 -6 24 -6 34 1 21 -4 21 -59 1 -24 -8 -55 -18 -68 -20 -13 -3 -28 -6 -34
-7 -9 -2 -51 132 -44 139 1 1 34 8 72 15 l70 14 -3 35 c-2 19 -5 36 -6 38 -2
1 -32 -7 -67 -18 -35 -11 -69 -20 -76 -20 -11 0 -39 107 -31 116 3 2 37 10 76
17 40 8 74 16 76 18 8 9 -7 69 -18 68 -6 -1 -63 -15 -126 -31z"/>
<path d="M3842 4629 c-54 -86 -202 -293 -213 -297 -18 -7 -8 -28 22 -45 36
-20 43 -17 65 25 9 17 42 71 74 121 61 94 62 94 75 17 3 -19 8 -42 10 -50 2
-8 7 -35 10 -60 4 -25 11 -66 15 -92 5 -26 12 -69 16 -95 3 -26 12 -54 19 -61
15 -16 11 -21 120 146 41 62 95 140 120 174 26 33 45 61 43 62 -2 0 -17 11
-34 23 l-31 21 -18 -31 c-10 -18 -45 -74 -78 -125 -65 -101 -69 -102 -82 -19
-3 27 -9 59 -11 70 -7 31 -44 251 -44 259 0 4 -8 12 -18 17 -15 8 -24 -1 -60
-60z"/>
<path d="M2195 4679 c-4 -6 -23 -23 -43 -37 -21 -15 -38 -32 -38 -37 -1 -6 -4
-36 -8 -68 -3 -31 -8 -67 -11 -80 -3 -12 -7 -35 -9 -51 -3 -16 -7 -30 -9 -32
-2 -2 -25 30 -51 71 -32 49 -52 72 -62 68 -8 -3 -14 -9 -14 -13 0 -4 -13 -13
-29 -20 l-29 -12 90 -121 c49 -67 110 -154 135 -194 l46 -72 29 24 c16 14 34
25 40 25 16 0 3 23 -48 89 -26 34 -45 63 -42 66 3 3 56 -7 119 -23 l113 -28
47 31 c26 16 48 33 48 36 1 3 -54 17 -121 32 -211 47 -201 42 -195 90 5 38 38
191 53 245 7 23 0 30 -11 11z"/>
<path d="M3091 4436 c-31 -33 -89 -59 -179 -81 -42 -10 -86 -28 -102 -42 -55
-46 -54 -151 2 -210 44 -47 90 -55 284 -51 160 3 183 5 219 25 115 61 159 171
124 309 l-12 45 -27 -30 c-26 -28 -98 -66 -107 -57 -3 2 0 13 6 24 6 11 13 37
17 56 6 43 -9 47 -40 12 -48 -54 -140 -97 -135 -63 3 27 -2 54 -14 71 -12 16
-14 15 -36 -8z m-31 -121 l-22 -35 31 0 c18 0 57 9 88 20 32 11 58 20 60 20 1
0 -2 -11 -7 -25 -6 -15 -6 -26 0 -30 19 -11 105 7 148 32 23 13 42 19 42 13 0
-6 -11 -35 -25 -64 -25 -53 -70 -94 -125 -114 -29 -10 -294 -8 -330 3 -92 28
-93 141 -3 161 71 15 133 35 138 44 3 6 11 10 16 10 6 0 1 -16 -11 -35z"/>
<path d="M2670 4293 c-472 -136 -817 -554 -874 -1061 -5 -44 -7 -146 -5 -247
1 -40 29 -192 48 -255 120 -418 460 -751 883 -864 132 -35 146 -37 308 -42
282 -7 515 60 750 217 152 102 311 273 392 423 69 128 129 294 143 398 3 24 8
54 10 68 6 33 6 258 1 290 -3 14 -10 52 -16 86 -65 371 -365 751 -732 928 -41
20 -79 36 -84 36 -5 0 -10 -14 -11 -30 -2 -28 3 -33 70 -66 252 -126 476 -350
600 -599 51 -103 88 -218 102 -310 3 -23 8 -52 10 -65 3 -14 5 -63 6 -110 1
-316 -126 -622 -352 -849 -190 -190 -434 -309 -709 -346 -52 -7 -249 -6 -300
1 -435 60 -801 340 -964 736 -263 641 78 1393 720 1587 64 20 71 25 83 57 7
20 11 37 9 39 -1 2 -41 -8 -88 -22z"/>
<path d="M2433 4032 c-22 -11 -30 -21 -24 -30 4 -7 15 -10 23 -7 13 5 15 -6
15 -77 -1 -78 0 -83 21 -86 22 -3 22 -1 22 107 0 121 -1 123 -57 93z"/>
<path d="M2591 4034 c-20 -14 -22 -22 -17 -55 3 -21 2 -40 -3 -43 -18 -12 -18
-57 0 -80 56 -72 175 3 125 79 -10 15 -12 26 -6 30 16 10 11 44 -10 65 -24 24
-58 26 -89 4z m58 -27 c8 -10 7 -18 -2 -31 -12 -16 -14 -16 -26 -2 -14 16 -9
46 7 46 5 0 15 -6 21 -13z m11 -111 c0 -13 -6 -28 -13 -34 -27 -23 -54 24 -35
61 12 24 48 5 48 -27z"/>
<path d="M3410 3989 c0 -51 3 -60 18 -58 44 4 52 -1 52 -31 0 -38 -31 -57 -55
-34 -12 12 -19 14 -27 6 -17 -17 -1 -42 29 -43 47 -2 57 1 81 27 40 45 20 107
-34 109 -21 1 -30 7 -32 23 -3 19 1 20 41 18 39 -2 44 0 43 18 -1 18 -9 21
-58 22 l-58 3 0 -60z"/>
<path d="M3579 4046 c-1 -1 -3 -27 -5 -60 -3 -55 -2 -58 18 -53 25 7 58 -8 58
-26 0 -7 -7 -23 -16 -35 -15 -22 -17 -22 -41 -7 -26 17 -35 15 -39 -10 -1 -9
9 -17 24 -21 15 -3 32 -7 37 -9 20 -5 65 26 71 49 13 54 -5 81 -68 100 -11 3
-15 11 -12 20 4 11 17 14 45 12 35 -4 39 -2 39 19 0 20 -4 22 -55 22 -30 0
-55 -1 -56 -1z"/>
<path d="M2776 3998 c3 -13 22 -54 41 -91 56 -112 57 -116 25 -115 -15 0 -140
0 -278 -1 l-250 -1 3 -92 c2 -51 5 -239 6 -418 4 -365 7 -385 77 -525 72 -143
200 -270 340 -336 125 -60 157 -77 239 -131 41 -26 77 -48 82 -48 4 0 44 25
89 54 45 30 102 65 128 77 158 74 195 94 253 143 118 97 207 240 250 401 23
88 24 131 19 608 -3 181 -7 267 -14 267 -6 0 -129 1 -273 1 -145 0 -263 3
-263 6 0 4 25 53 55 109 30 57 55 105 55 108 0 3 -133 5 -296 6 l-296 1 8 -23z
m465 -81 c-47 -68 -48 -69 -173 -67 -62 0 -119 2 -127 2 -13 1 -71 83 -71 100
0 4 90 8 200 8 l201 0 -30 -43z m-73 -136 c7 0 11 -5 8 -9 -5 -8 -8 -42 -22
-222 -3 -41 -7 -95 -9 -120 -2 -25 -6 -85 -10 -135 -3 -49 -8 -119 -11 -154
-3 -36 -7 -87 -9 -115 -7 -119 -19 -274 -24 -308 -1 -5 -14 -8 -31 -8 -28 0
-30 3 -31 38 0 20 -2 48 -4 62 -1 14 -6 68 -10 120 -4 52 -8 111 -10 130 -2
19 -6 76 -10 125 -3 50 -8 101 -10 115 -2 14 -7 70 -10 125 -4 55 -8 111 -10
125 -2 14 -6 68 -10 120 -8 111 -8 104 -6 110 1 4 174 5 219 1z m550 -60 c16
-9 20 -46 13 -128 -1 -8 -16 -4 -45 12 -117 65 -268 92 -403 72 l-53 -8 0 30
c0 26 4 30 33 33 72 7 438 -2 455 -11z m-850 5 c11 -4 19 -17 20 -37 2 -27 0
-30 -15 -24 -10 4 -66 9 -124 11 -121 4 -173 -7 -283 -62 -38 -19 -72 -34 -76
-34 -13 0 -6 135 8 140 19 8 448 13 470 6z m658 -112 c28 -9 64 -26 80 -39
l29 -23 1 -252 2 -252 -72 7 c-39 4 -78 9 -86 10 -8 2 -37 4 -65 5 -39 1 -45
3 -28 10 12 5 24 18 28 30 4 12 21 36 39 53 37 37 60 87 79 172 14 65 12 95
-6 95 -8 0 -9 3 -1 8 11 7 34 66 34 88 0 7 -31 32 -69 54 -58 35 -73 40 -90
30 -12 -6 -21 -15 -21 -21 0 -5 -11 -21 -24 -36 -14 -15 -22 -33 -19 -44 3
-10 0 -19 -6 -19 -21 0 -11 -47 19 -89 l31 -42 -33 -27 c-17 -15 -35 -26 -39
-25 -16 5 -49 -51 -49 -82 0 -25 8 -38 40 -64 22 -18 44 -30 48 -27 5 3 8 -9
8 -27 l-1 -32 -85 0 -85 0 1 55 c0 30 3 100 7 155 4 55 10 135 13 178 10 135
21 150 116 163 24 4 44 7 46 9 7 7 114 -7 158 -21z m-844 -39 c-4 -76 -50
-212 -73 -218 -23 -6 -27 -57 -4 -57 12 0 15 -13 15 -60 0 -47 -3 -60 -15 -60
-21 0 -19 -47 1 -58 28 -16 10 -58 -27 -66 -64 -13 -86 -8 -92 19 -6 35 1 452
8 476 10 30 117 77 170 75 18 -1 20 -7 17 -51z m170 34 c20 -5 39 -13 42 -17
10 -17 32 -231 42 -419 6 -103 6 -103 -17 -104 -49 -3 -94 2 -106 13 -17 14
-16 37 2 44 18 7 20 51 4 56 -7 2 -14 32 -16 66 -4 53 -2 61 11 56 12 -5 16 0
16 20 0 14 -4 26 -9 26 -32 0 -91 152 -91 235 l0 44 43 -5 c23 -3 59 -10 79
-15z m627 -60 c54 -34 56 -45 14 -88 -28 -29 -29 -46 -3 -64 19 -13 20 -19 10
-62 -12 -54 -36 -105 -50 -105 -5 0 -7 -6 -4 -13 6 -17 -51 -72 -60 -58 -4 6
-14 11 -23 11 -23 0 -67 39 -68 61 -1 14 11 29 37 45 21 13 38 28 38 33 0 5
11 12 24 15 35 9 38 30 10 63 -13 15 -31 40 -38 55 -12 23 -12 29 0 39 8 7 13
18 10 25 -3 7 4 22 15 35 10 12 19 26 19 31 0 14 18 9 69 -23z m-1048 -265 c0
-132 -3 -247 -6 -256 -9 -23 -32 -30 -37 -10 -2 9 -4 119 -4 243 1 209 3 229
20 248 11 12 21 19 23 17 2 -2 4 -111 4 -242z m1292 219 c13 -15 15 -53 15
-256 -1 -131 -4 -240 -8 -242 -23 -14 -29 37 -35 268 -3 136 -1 247 3 247 5 0
16 -8 25 -17z m-976 -140 c-2 -1 -20 -4 -41 -6 -34 -4 -37 -3 -33 17 3 11 11
48 18 81 l13 59 22 -74 c13 -41 22 -75 21 -77z m19 -67 c9 -24 10 -82 2 -98
-10 -21 -90 -25 -105 -5 -14 17 -16 87 -3 102 13 15 100 16 106 1z m1 -186 c5
-26 -12 -40 -51 -42 -38 -1 -56 12 -56 42 0 11 12 15 52 15 39 0 53 -4 55 -15z
m184 -97 c0 -4 3 -20 5 -35 4 -22 1 -28 -13 -29 -174 -8 -524 -8 -519 0 9 14
137 42 271 60 77 10 255 13 256 4z m544 -7 c11 -2 42 -7 70 -11 56 -8 125 -33
125 -45 0 -5 -21 -7 -47 -4 -27 2 -144 5 -260 6 l-213 3 0 34 0 34 153 -7 c83
-3 161 -8 172 -10z m-523 -171 c3 -27 9 -77 13 -110 3 -33 8 -66 10 -72 5 -14
134 -19 137 -5 0 4 2 18 3 32 1 14 6 52 10 85 4 33 8 70 10 83 1 12 5 25 8 28
7 7 525 9 532 2 11 -10 -67 -156 -114 -214 -73 -91 -149 -145 -343 -244 l-179
-91 -52 30 c-29 17 -86 47 -127 67 -41 20 -104 49 -139 66 -88 42 -203 153
-263 254 -25 44 -48 90 -50 104 -3 23 0 25 47 30 28 3 149 5 270 5 l220 0 7
-50z"/>
<path d="M2653 2843 c-13 -8 -41 -16 -63 -16 -33 -1 -39 -4 -34 -16 14 -32 16
-69 5 -90 -10 -17 -9 -21 3 -21 19 0 62 -56 71 -92 6 -23 13 -28 40 -28 17 0
53 -11 80 -25 45 -24 49 -25 72 -10 31 20 60 11 161 -49 l74 -44 70 49 c87 60
118 68 157 40 l28 -20 19 21 c23 25 74 48 109 48 20 0 29 8 40 34 8 18 28 45
45 59 27 23 29 28 18 51 -8 20 -8 32 0 51 17 37 15 45 -10 41 -13 -2 -40 3
-60 10 -32 11 -43 11 -75 -2 -20 -9 -52 -14 -70 -12 -31 4 -35 1 -40 -25 -5
-26 -59 -80 -83 -83 -5 -1 -14 -2 -19 -3 -5 0 -3 -15 6 -32 14 -28 14 -32 -3
-51 -11 -11 -45 -38 -76 -60 l-58 -39 -52 35 c-89 59 -90 60 -87 107 3 37 0
43 -21 51 -34 12 -66 44 -80 78 -10 25 -17 28 -72 32 -33 2 -63 9 -66 15 -5 7
-14 6 -29 -4z m98 -56 c19 0 30 -8 43 -31 9 -18 30 -40 47 -50 24 -14 29 -24
29 -54 0 -34 -3 -38 -39 -49 -34 -11 -45 -10 -82 6 -23 11 -48 17 -54 14 -7
-2 -17 9 -23 25 -5 16 -20 39 -33 50 -14 14 -22 34 -23 56 -1 40 14 48 74 38
19 -3 47 -5 61 -5z m743 0 c3 3 5 -11 4 -32 -1 -23 -9 -46 -22 -59 -12 -12
-25 -30 -31 -39 -5 -9 -25 -19 -44 -22 -19 -3 -46 -14 -60 -24 -23 -16 -30
-16 -56 -5 -25 10 -31 19 -33 46 -2 27 3 36 28 50 17 10 36 31 41 48 10 27 15
30 52 30 23 0 48 4 56 9 8 5 24 6 37 1 12 -5 25 -6 28 -3z"/>
<path d="M1628 3864 c-39 -20 -56 -80 -35 -121 56 -108 216 -26 163 83 -24 51
-76 67 -128 38z"/>
<path d="M4358 3864 c-43 -22 -57 -80 -31 -124 36 -62 127 -60 159 2 44 84
-43 167 -128 122z"/>
<path d="M1931 3363 c-25 -96 -32 -393 -10 -434 9 -18 16 -20 47 -13 73 14 74
14 89 -50 20 -89 40 -142 90 -243 125 -250 340 -438 596 -523 49 -16 67 -26
66 -38 -6 -60 2 -112 19 -121 58 -31 395 -31 455 1 13 7 17 22 17 71 l0 63 47
12 c55 15 216 92 288 137 74 47 167 137 236 227 76 101 161 278 187 386 11 46
23 86 26 89 3 3 25 -2 49 -10 24 -8 50 -11 57 -7 26 16 33 263 10 373 -5 29
-12 63 -15 76 -2 13 -7 26 -10 30 -8 7 -142 -62 -196 -101 l-37 -27 5 -100 c7
-115 3 -121 -64 -97 l-41 14 -6 -60 c-15 -133 -89 -302 -185 -422 -58 -72
-104 -114 -181 -164 -54 -35 -207 -102 -233 -102 -16 0 -47 -32 -47 -48 0 -6
10 -20 22 -32 26 -24 17 -38 -34 -49 -42 -10 -224 -7 -255 3 -25 8 -31 44 -12
63 18 18 6 56 -19 60 -111 16 -263 103 -372 213 -85 84 -134 160 -180 274 -34
84 -35 89 -45 163 -14 107 -10 101 -60 90 -25 -6 -48 -7 -52 -3 -9 8 -8 101 1
149 6 34 5 35 -76 89 -100 65 -153 98 -161 98 -4 0 -11 -17 -16 -37z m166
-136 c20 -18 22 -27 18 -105 -3 -48 -9 -89 -13 -93 -13 -12 -107 -28 -116 -19
-12 12 -11 251 1 272 5 10 81 -28 110 -55z m2034 56 c0 -5 3 -17 5 -28 8 -34
12 -242 5 -252 -3 -6 -30 -2 -66 8 l-60 18 0 103 0 103 50 27 c53 29 65 33 66
21z m-175 -307 c67 -28 67 -24 34 -151 -39 -152 -151 -340 -270 -453 -75 -72
-263 -178 -386 -220 l-31 -10 -6 55 c-3 30 -10 60 -16 67 -8 9 7 17 63 34 170
50 387 255 471 447 25 55 53 143 61 192 6 33 14 63 18 63 1 0 29 -11 62 -24z
m-1722 -3 c3 -10 8 -36 12 -58 39 -229 268 -504 494 -595 36 -15 73 -30 84
-33 13 -5 16 -11 8 -20 -6 -7 -14 -33 -18 -57 -11 -73 -11 -73 -100 -37 -277
112 -476 335 -583 654 -35 103 -31 121 30 145 56 22 67 22 73 1z m729 -840
c79 -9 115 -9 203 1 l72 7 -4 -62 c-2 -34 -7 -66 -11 -70 -23 -22 -182 -30
-287 -15 -55 9 -63 21 -65 100 -1 49 1 57 14 52 8 -3 43 -9 78 -13z"/>
<path d="M3894 2918 c-4 -15 -1 -25 12 -35 15 -11 21 -10 39 7 23 22 42 16 23
-7 -13 -16 -2 -31 13 -16 6 6 9 21 7 34 -4 29 -45 39 -54 15 -9 -23 -26 -19
-19 4 3 11 2 20 -4 20 -5 0 -13 -10 -17 -22z"/>
<path d="M3867 2803 c-4 -4 5 -12 20 -18 l27 -11 -44 -18 -45 -18 49 -24 c58
-28 56 -28 56 -10 0 8 -12 17 -27 21 l-26 6 28 15 c15 8 34 14 41 14 24 0 15
18 -13 28 -16 5 -35 13 -44 16 -8 4 -18 3 -22 -1z"/>
<path d="M3785 2644 c-9 -14 -15 -27 -13 -28 2 -1 20 -13 41 -25 37 -23 39
-23 52 -5 8 11 14 26 14 34 0 12 -3 11 -14 -4 -7 -10 -19 -15 -25 -11 -8 5 -8
10 0 20 8 9 8 15 0 20 -5 3 -13 -1 -16 -9 -10 -26 -25 -18 -18 9 8 32 1 32
-21 -1z"/>
<path d="M3707 2542 c-21 -23 -22 -56 -1 -76 18 -19 24 -19 57 -7 25 10 42 47
26 57 -5 3 -9 -1 -9 -9 0 -25 -26 -40 -49 -27 -26 14 -27 35 -1 53 11 8 17 17
13 20 -10 11 -19 8 -36 -11z"/>
<path d="M3609 2434 c-19 -24 1 -50 36 -46 19 3 26 0 22 -10 -2 -7 -10 -12
-16 -10 -6 1 -11 -4 -11 -12 0 -21 38 -8 45 16 9 27 -10 46 -40 40 -16 -3 -25
0 -25 8 0 7 7 10 15 6 9 -3 15 0 15 9 0 20 -24 19 -41 -1z"/>
<path d="M3505 2350 c-7 -12 32 -80 46 -80 14 0 11 16 -12 54 -23 39 -25 41
-34 26z"/>
<path d="M3368 2293 c-10 -2 -18 -10 -18 -18 0 -19 29 -85 38 -85 14 0 72 40
72 49 0 5 -4 21 -10 35 -9 26 -35 32 -82 19z m61 -32 c8 -14 6 -22 -9 -36 -18
-16 -19 -15 -34 13 -8 16 -12 32 -9 36 13 13 43 5 52 -13z"/>
<path d="M2187 2893 c-4 -3 -7 -15 -7 -25 0 -11 -5 -18 -12 -15 -7 2 -12 11
-10 21 2 9 -2 16 -8 16 -6 0 -10 -12 -8 -27 4 -40 42 -44 62 -6 14 26 15 26
16 6 0 -25 20 -33 20 -9 0 38 -32 61 -53 39z"/>
<path d="M2223 2750 c-41 -18 -42 -21 -31 -45 13 -29 32 -34 23 -6 -7 23 10
38 19 16 8 -23 28 -18 21 5 -7 23 10 27 19 4 3 -8 10 -13 15 -10 9 6 -9 57
-19 55 -3 0 -24 -9 -47 -19z"/>
<path d="M2305 2626 c-11 -6 -29 -16 -40 -23 -26 -15 -13 -28 14 -13 23 12 26
8 11 -21 -9 -16 -7 -19 15 -19 14 0 25 -4 25 -10 0 -5 -4 -10 -10 -10 -5 0
-10 -7 -10 -15 0 -8 4 -15 8 -15 9 0 72 63 72 71 0 3 -16 3 -37 1 -32 -4 -35
-3 -28 14 22 55 18 63 -20 40z"/>
<path d="M2418 2450 c-28 -30 -36 -50 -20 -50 4 0 13 5 19 11 7 7 17 8 29 1
26 -13 44 -4 44 20 0 18 -25 47 -40 47 -3 1 -17 -13 -32 -29z m52 -10 c0 -5
-7 -10 -16 -10 -8 0 -12 5 -9 10 3 6 10 10 16 10 5 0 9 -4 9 -10z"/>
<path d="M2536 2349 c-26 -39 -27 -41 -9 -55 10 -7 24 -14 32 -14 11 0 11 4
-2 18 -19 21 -11 38 9 21 8 -7 14 -7 19 1 3 5 -1 13 -9 16 -9 3 -13 10 -10 15
3 5 14 4 26 -2 27 -15 20 9 -9 28 -18 12 -22 10 -47 -28z"/>
<path d="M2666 2284 c-18 -39 -21 -64 -6 -64 6 0 10 5 10 10 0 6 5 10 10 10 6
0 10 -6 10 -14 0 -7 7 -19 16 -27 13 -11 14 -9 8 15 -5 20 -2 31 12 41 22 16
11 43 -23 56 -16 6 -23 1 -37 -27z m49 -4 c3 -5 -1 -10 -9 -10 -9 0 -16 5 -16
10 0 6 4 10 9 10 6 0 13 -4 16 -10z"/>
<path d="M4402 3268 c-9 -11 -9 -65 0 -73 2 -1 45 -24 97 -49 51 -26 90 -50
87 -54 -4 -3 -46 -29 -94 -57 -85 -50 -87 -52 -89 -91 -2 -69 4 -68 124 5 62
37 118 73 126 79 8 7 57 13 113 14 l99 3 1 35 c1 58 1 58 -100 53 -81 -4 -98
-2 -135 17 -39 19 -143 81 -197 117 -17 11 -23 11 -32 1z"/>
<path d="M1407 3228 c-100 -14 -149 -69 -153 -172 -4 -103 27 -164 101 -197
32 -14 73 -18 205 -21 l165 -3 3 38 3 38 -153 -3 c-214 -3 -259 17 -260 116
-2 101 36 119 247 120 l160 1 0 43 c0 23 -4 43 -10 43 -40 5 -269 3 -308 -3z"/>
<path d="M4346 2673 c-16 -49 -42 -119 -57 -158 -31 -74 -29 -86 18 -99 19 -6
24 -1 40 50 9 31 22 58 28 60 8 4 256 -83 348 -121 13 -6 20 1 33 30 8 21 13
43 11 49 -3 6 -38 22 -78 34 -98 30 -272 93 -282 102 -4 3 4 32 18 63 24 55
24 57 5 67 -44 24 -55 14 -84 -77z"/>
<path d="M1675 2583 c-49 -25 -137 -66 -195 -90 -58 -25 -109 -49 -113 -53 -5
-4 -2 -22 7 -39 19 -36 10 -39 174 47 l123 64 -25 -64 c-56 -147 -106 -275
-120 -310 -13 -30 -13 -38 -2 -47 10 -9 46 5 152 57 77 38 169 82 207 97 70
29 80 44 53 81 -14 18 -17 17 -113 -31 -54 -27 -114 -57 -134 -66 l-35 -16 73
190 c40 105 73 199 73 209 0 28 -26 21 -125 -29z"/>
<path d="M4133 2257 c-13 -18 -23 -37 -23 -43 1 -5 35 -32 78 -61 42 -29 123
-88 179 -132 109 -85 112 -86 147 -29 l17 26 -63 43 c-74 50 -207 149 -262
196 -22 18 -42 33 -45 33 -3 0 -16 -15 -28 -33z"/>
<path d="M1943 1962 c-84 -86 -153 -162 -153 -168 0 -14 43 -54 58 -54 6 0 35
26 64 57 29 31 100 104 157 160 l104 104 -28 29 c-16 17 -34 30 -39 29 -6 0
-80 -71 -163 -157z"/>
<path d="M3892 2019 c-82 -41 -115 -134 -72 -203 37 -61 94 -76 188 -51 45 11
61 12 81 2 83 -39 20 -152 -70 -127 -44 13 -56 0 -39 -42 17 -41 26 -47 59
-42 121 22 192 144 142 243 -36 69 -90 82 -211 53 -43 -11 -75 -1 -90 29 -26
48 27 96 82 75 41 -15 52 1 33 47 -18 44 -39 47 -103 16z"/>
<path d="M2289 1938 c-3 -7 -7 -73 -13 -183 -3 -66 -9 -163 -12 -216 -6 -95
-6 -96 17 -102 38 -11 42 -9 94 39 28 25 107 96 178 156 70 61 127 116 127
122 0 6 -14 17 -30 25 -35 15 -22 25 -222 -166 -36 -35 -69 -63 -72 -63 -3 0
-3 28 0 63 2 34 7 87 9 117 3 30 7 82 11 115 l6 60 -36 18 c-34 15 -54 21 -57
15z"/>
<path d="M3410 1770 c-30 -10 -62 -19 -71 -19 -8 -1 -23 -7 -32 -13 -15 -12
-14 -20 13 -106 17 -52 44 -144 61 -205 16 -62 31 -117 34 -124 3 -8 13 -8 44
1 22 6 42 14 45 17 3 3 -7 45 -23 92 -17 48 -26 87 -22 87 9 0 106 -67 163
-111 35 -28 38 -29 82 -17 30 8 46 18 46 28 -1 8 -29 33 -62 55 -34 22 -79 53
-101 68 l-39 29 21 19 c52 49 66 100 42 156 -25 62 -99 78 -201 43z m96 -58
c53 -35 23 -115 -52 -136 -19 -6 -23 0 -38 52 -9 32 -16 63 -16 69 0 18 84 30
106 15z"/>
<path d="M2846 1717 c-3 -12 -8 -71 -11 -132 -7 -125 -11 -178 -19 -251 -4
-37 -2 -53 7 -56 14 -5 92 -10 187 -12 l65 -1 0 30 0 30 -83 3 -84 3 6 72 c3
40 5 74 6 75 0 2 26 1 57 -3 70 -8 66 -8 79 -6 13 1 24 45 15 60 -4 5 -38 11
-76 13 l-70 3 3 54 c2 30 5 58 7 61 4 7 27 5 113 -6 l52 -7 0 37 c0 36 0 36
-42 37 -24 0 -52 2 -63 4 -11 2 -48 6 -82 9 -59 5 -63 4 -67 -17z"/>
</g>
</svg>
